crazyA.ufo
<glyph name="comma" format="2">
  <advance width="165"/>
  <unicode hex="002C"/>
  <outline>
    <contour>
      <point x="20" y="0" type="line"/>
      <point x="20" y="141" type="line"/>
      <point x="145" y="141" type="line"/>
      <point x="145" y="0" type="line" smooth="yes"/>
      <point x="145" y="-84"/>
      <point x="97" y="-109"/>
      <point x="20" y="-109" type="curve"/>
      <point x="20" y="-69" type="line"/>
      <point x="59" y="-69"/>
      <point x="93" y="-40"/>
      <point x="93" y="0" type="curve"/>
    </contour>
  </outline>
</glyph>
<glyph name="two" format="2">
  <advance width="651"/>
  <unicode hex="0032"/>
  <outline>
    <contour>
      <point x="45" y="448" type="line"/>
      <point x="118" y="449" type="line"/>
      <point x="173" y="616" type="line"/>
      <point x="212" y="623"/>
      <point x="251" y="627"/>
      <point x="290" y="627" type="curve" smooth="yes"/>
      <point x="330" y="627"/>
      <point x="422" y="623"/>
      <point x="422" y="566" type="curve" smooth="yes"/>
      <point x="422" y="429"/>
      <point x="25" y="284"/>
      <point x="22" y="147" type="curve" smooth="yes"/>
      <point x="21" y="98"/>
      <point x="21" y="49"/>
      <point x="20" y="0" type="curve"/>
      <point x="631" y="0" type="line"/>
      <point x="631" y="271" type="line"/>
      <point x="543" y="271" type="line"/>
      <point x="498" y="127" type="line"/>
      <point x="195" y="127" type="line"/>
      <point x="297" y="284"/>
      <point x="599" y="369"/>
      <point x="599" y="579" type="curve" smooth="yes"/>
      <point x="599" y="721"/>
      <point x="459" y="760"/>
      <point x="341" y="760" type="curve" smooth="yes"/>
      <point x="265" y="760"/>
      <point x="114" y="754"/>
      <point x="45" y="727" type="curve"/>
    </contour>
  </outline>
</glyph>
<glyph name="four" format="2">
  <advance width="574"/>
  <unicode hex="0034"/>
  <outline>
    <contour>
      <point x="429" y="768" type="curve" smooth="yes"/>
      <point x="391" y="768"/>
      <point x="367" y="746"/>
      <point x="346" y="717" type="curve" smooth="yes"/>
      <point x="40" y="295" type="line" smooth="yes"/>
      <point x="26" y="276"/>
      <point x="20" y="262"/>
      <point x="20" y="238" type="curve" smooth="yes"/>
      <point x="20" y="200"/>
      <point x="65" y="192"/>
      <point x="95" y="191" type="curve" smooth="yes"/>
      <point x="213" y="189" type="line" smooth="yes"/>
      <point x="272" y="188"/>
      <point x="323" y="161"/>
      <point x="323" y="96" type="curve" smooth="yes"/>
      <point x="323" y="43" type="line" smooth="yes"/>
      <point x="323" y="4"/>
      <point x="359" y="-19"/>
      <point x="395" y="-19" type="curve" smooth="yes"/>
      <point x="433" y="-19"/>
      <point x="472" y="8"/>
      <point x="474" y="48" type="curve" smooth="yes"/>
      <point x="477" y="117" type="line" smooth="yes"/>
      <point x="480" y="195"/>
      <point x="554" y="159"/>
      <point x="554" y="225" type="curve" smooth="yes"/>
      <point x="554" y="275"/>
      <point x="478" y="258"/>
      <point x="478" y="376" type="curve" smooth="yes"/>
      <point x="478" y="484"/>
      <point x="480" y="591"/>
      <point x="480" y="699" type="curve" smooth="yes"/>
      <point x="480" y="733"/>
      <point x="469" y="768"/>
    </contour>
    <contour>
      <point x="365" y="621" type="line"/>
      <point x="355" y="274" type="line"/>
      <point x="111" y="276" type="line"/>
    </contour>
  </outline>
</glyph>
<glyph name="five" format="2">
  <advance width="579"/>
  <unicode hex="0035"/>
  <outline>
    <contour>
      <point x="88" y="780" type="curve"/>
      <point x="115" y="741"/>
      <point x="120" y="696"/>
      <point x="120" y="649" type="curve" smooth="yes"/>
      <point x="120" y="507"/>
      <point x="99" y="428"/>
      <point x="49" y="298" type="curve"/>
      <point x="100" y="313"/>
      <point x="154" y="324"/>
      <point x="208" y="324" type="curve" smooth="yes"/>
      <point x="298" y="324"/>
      <point x="402" y="283"/>
      <point x="402" y="178" type="curve" smooth="yes"/>
      <point x="402" y="108"/>
      <point x="284" y="34"/>
      <point x="221" y="34" type="curve" smooth="yes"/>
      <point x="157" y="34"/>
      <point x="65" y="85"/>
      <point x="21" y="130" type="curve"/>
      <point x="21" y="-13" type="line"/>
      <point x="88" y="4"/>
      <point x="168" y="6"/>
      <point x="238" y="6" type="curve" smooth="yes"/>
      <point x="267" y="6"/>
      <point x="297" y="1"/>
      <point x="326" y="1" type="curve" smooth="yes"/>
      <point x="369" y="1"/>
      <point x="415" y="7"/>
      <point x="452" y="31" type="curve" smooth="yes"/>
      <point x="515" y="73"/>
      <point x="553" y="117"/>
      <point x="553" y="196" type="curve" smooth="yes"/>
      <point x="553" y="285"/>
      <point x="487" y="367"/>
      <point x="399" y="383" type="curve" smooth="yes"/>
      <point x="380" y="386"/>
      <point x="360" y="388"/>
      <point x="341" y="388" type="curve" smooth="yes"/>
      <point x="293" y="388"/>
      <point x="248" y="377"/>
      <point x="202" y="364" type="curve"/>
      <point x="202" y="371" type="line"/>
      <point x="202" y="424"/>
      <point x="249" y="625"/>
      <point x="272" y="674" type="curve"/>
      <point x="287" y="675"/>
      <point x="302" y="676"/>
      <point x="317" y="676" type="curve" smooth="yes"/>
      <point x="389" y="676"/>
      <point x="460" y="660"/>
      <point x="529" y="643" type="curve"/>
      <point x="530" y="680"/>
      <point x="536" y="718"/>
      <point x="558" y="749" type="curve"/>
      <point x="507" y="741"/>
      <point x="455" y="737"/>
      <point x="403" y="737" type="curve" smooth="yes"/>
      <point x="297" y="737"/>
      <point x="191" y="754"/>
    </contour>
  </outline>
</glyph>
<glyph name="six" format="2">
  <advance width="460"/>
  <unicode hex="0036"/>
  <outline>
    <contour>
      <point x="390" y="730" type="curve" smooth="yes"/>
      <point x="390" y="743"/>
      <point x="383" y="750"/>
      <point x="370" y="750" type="curve" smooth="yes"/>
      <point x="88" y="750"/>
      <point x="20" y="571"/>
      <point x="20" y="324" type="curve" smooth="yes"/>
      <point x="20" y="189"/>
      <point x="58" y="-10"/>
      <point x="230" y="-10" type="curve" smooth="yes"/>
      <point x="389" y="-10"/>
      <point x="440" y="167"/>
      <point x="440" y="297" type="curve" smooth="yes"/>
      <point x="440" y="387"/>
      <point x="408" y="548"/>
      <point x="291" y="548" type="curve" smooth="yes"/>
      <point x="253" y="548"/>
      <point x="219" y="531"/>
      <point x="195" y="501" type="curve"/>
      <point x="195" y="583"/>
      <point x="219" y="655"/>
      <point x="304" y="681" type="curve" smooth="yes"/>
      <point x="327" y="688"/>
      <point x="347" y="689"/>
      <point x="370" y="692" type="curve" smooth="yes"/>
      <point x="395" y="695"/>
      <point x="390" y="711"/>
    </contour>
    <contour>
      <point x="195" y="414" type="line" smooth="yes"/>
      <point x="195" y="437"/>
      <point x="207" y="449"/>
      <point x="230" y="449" type="curve" smooth="yes"/>
      <point x="253" y="449"/>
      <point x="265" y="437"/>
      <point x="265" y="414" type="curve" smooth="yes"/>
      <point x="265" y="97" type="line" smooth="yes"/>
      <point x="265" y="74"/>
      <point x="253" y="62"/>
      <point x="230" y="62" type="curve" smooth="yes"/>
      <point x="207" y="62"/>
      <point x="195" y="74"/>
      <point x="195" y="97" type="curve" smooth="yes"/>
    </contour>
  </outline>
</glyph>
<glyph name="nine" format="2">
  <advance width="297"/>
  <unicode hex="0039"/>
  <outline>
    <contour>
      <point x="130" y="0" type="curve" smooth="yes"/>
      <point x="215" y="0"/>
      <point x="246" y="88"/>
      <point x="246" y="160" type="curve" smooth="yes"/>
      <point x="246" y="357" type="line"/>
      <point x="277" y="382" type="line"/>
      <point x="246" y="413" type="line"/>
      <point x="246" y="590" type="line" smooth="yes"/>
      <point x="246" y="662"/>
      <point x="216" y="750"/>
      <point x="130" y="750" type="curve" smooth="yes"/>
      <point x="52" y="750"/>
      <point x="21" y="654"/>
      <point x="21" y="590" type="curve" smooth="yes"/>
      <point x="21" y="436" type="line" smooth="yes"/>
      <point x="21" y="366"/>
      <point x="53" y="308"/>
      <point x="130" y="308" type="curve" smooth="yes"/>
      <point x="150" y="308"/>
      <point x="181" y="327"/>
      <point x="191" y="345" type="curve"/>
      <point x="191" y="206" type="line" smooth="yes"/>
      <point x="191" y="171"/>
      <point x="162" y="153"/>
      <point x="130" y="153" type="curve" smooth="yes"/>
      <point x="99" y="153"/>
      <point x="73" y="174"/>
      <point x="73" y="206" type="curve" smooth="yes"/>
      <point x="73" y="294" type="line"/>
      <point x="20" y="294" type="line"/>
      <point x="20" y="154" type="line" smooth="yes"/>
      <point x="20" y="90"/>
      <point x="54" y="0"/>
    </contour>
    <contour>
      <point x="130" y="461" type="curve" smooth="yes"/>
      <point x="106" y="461"/>
      <point x="74" y="472"/>
      <point x="74" y="501" type="curve" smooth="yes"/>
      <point x="74" y="557" type="line" smooth="yes"/>
      <point x="74" y="586"/>
      <point x="106" y="597"/>
      <point x="130" y="597" type="curve" smooth="yes"/>
      <point x="156" y="597"/>
      <point x="193" y="588"/>
      <point x="193" y="555" type="curve" smooth="yes"/>
      <point x="193" y="502" type="line" smooth="yes"/>
      <point x="193" y="470"/>
      <point x="156" y="461"/>
    </contour>
  </outline>
</glyph>
<glyph name="question" format="2">
  <advance width="446"/>
  <unicode hex="003F"/>
  <outline>
    <contour>
      <point x="140" y="289" type="curve"/>
      <point x="152" y="306"/>
      <point x="174" y="305"/>
      <point x="192" y="305" type="curve" smooth="yes"/>
      <point x="336" y="305"/>
      <point x="426" y="383"/>
      <point x="426" y="530" type="curve" smooth="yes"/>
      <point x="426" y="653"/>
      <point x="350" y="736"/>
      <point x="226" y="736" type="curve" smooth="yes"/>
      <point x="191" y="736"/>
      <point x="157" y="727"/>
      <point x="123" y="727" type="curve" smooth="yes"/>
      <point x="100" y="727"/>
      <point x="79" y="734"/>
      <point x="62" y="750" type="curve"/>
      <point x="56" y="745"/>
      <point x="55" y="737"/>
      <point x="55" y="730" type="curve" smooth="yes"/>
      <point x="55" y="707"/>
      <point x="71" y="688"/>
      <point x="93" y="683" type="curve"/>
      <point x="49" y="671"/>
      <point x="21" y="633"/>
      <point x="21" y="587" type="curve" smooth="yes"/>
      <point x="21" y="551"/>
      <point x="40" y="515"/>
      <point x="76" y="504" type="curve"/>
      <point x="76" y="582"/>
      <point x="123" y="685"/>
      <point x="214" y="685" type="curve" smooth="yes"/>
      <point x="300" y="685"/>
      <point x="321" y="616"/>
      <point x="321" y="542" type="curve" smooth="yes"/>
      <point x="321" y="446"/>
      <point x="269" y="363"/>
      <point x="166" y="363" type="curve" smooth="yes"/>
      <point x="144" y="363"/>
      <point x="121" y="368"/>
      <point x="100" y="375" type="curve"/>
      <point x="99" y="305" type="line"/>
      <point x="115" y="305"/>
      <point x="130" y="303"/>
    </contour>
    <contour>
      <point x="349" y="619" type="curve" smooth="yes"/>
      <point x="341" y="619"/>
      <point x="335" y="625"/>
      <point x="335" y="633" type="curve" smooth="yes"/>
      <point x="335" y="641"/>
      <point x="342" y="646"/>
      <point x="349" y="646" type="curve" smooth="yes"/>
      <point x="356" y="646"/>
      <point x="362" y="640"/>
      <point x="362" y="633" type="curve" smooth="yes"/>
      <point x="362" y="626"/>
      <point x="357" y="619"/>
    </contour>
    <contour>
      <point x="371" y="509" type="curve" smooth="yes"/>
      <point x="363" y="509"/>
      <point x="357" y="515"/>
      <point x="357" y="523" type="curve" smooth="yes"/>
      <point x="357" y="531"/>
      <point x="364" y="536"/>
      <point x="371" y="536" type="curve" smooth="yes"/>
      <point x="378" y="536"/>
      <point x="384" y="530"/>
      <point x="384" y="523" type="curve" smooth="yes"/>
      <point x="384" y="516"/>
      <point x="379" y="509"/>
    </contour>
    <contour>
      <point x="349" y="399" type="curve" smooth="yes"/>
      <point x="341" y="399"/>
      <point x="335" y="405"/>
      <point x="335" y="413" type="curve" smooth="yes"/>
      <point x="335" y="421"/>
      <point x="342" y="426"/>
      <point x="349" y="426" type="curve" smooth="yes"/>
      <point x="356" y="426"/>
      <point x="362" y="420"/>
      <point x="362" y="413" type="curve" smooth="yes"/>
      <point x="362" y="406"/>
      <point x="357" y="399"/>
    </contour>
    <contour>
      <point x="132" y="178" type="curve"/>
      <point x="143" y="162"/>
      <point x="160" y="153"/>
      <point x="179" y="153" type="curve" smooth="yes"/>
      <point x="199" y="153"/>
      <point x="218" y="164"/>
      <point x="229" y="181" type="curve"/>
      <point x="201" y="181"/>
      <point x="185" y="209"/>
      <point x="185" y="234" type="curve" smooth="yes"/>
      <point x="185" y="254"/>
      <point x="197" y="280"/>
      <point x="220" y="280" type="curve"/>
      <point x="212" y="291"/>
      <point x="198" y="297"/>
      <point x="184" y="297" type="curve" smooth="yes"/>
      <point x="166" y="297"/>
      <point x="149" y="287"/>
      <point x="140" y="272" type="curve"/>
      <point x="129" y="287"/>
      <point x="113" y="297"/>
      <point x="94" y="297" type="curve" smooth="yes"/>
      <point x="80" y="297"/>
      <point x="67" y="291"/>
      <point x="58" y="280" type="curve"/>
      <point x="82" y="280"/>
      <point x="93" y="253"/>
      <point x="93" y="233" type="curve" smooth="yes"/>
      <point x="93" y="210"/>
      <point x="79" y="183"/>
      <point x="53" y="183" type="curve"/>
      <point x="53" y="165"/>
      <point x="65" y="153"/>
      <point x="83" y="153" type="curve" smooth="yes"/>
      <point x="102" y="153"/>
      <point x="120" y="164"/>
    </contour>
    <contour>
      <point x="141" y="203" type="curve"/>
      <point x="129" y="213"/>
      <point x="116" y="230"/>
      <point x="116" y="247" type="curve" smooth="yes"/>
      <point x="116" y="253"/>
      <point x="118" y="260"/>
      <point x="125" y="260" type="curve" smooth="yes"/>
      <point x="131" y="260"/>
      <point x="137" y="256"/>
      <point x="141" y="251" type="curve"/>
      <point x="145" y="255"/>
      <point x="151" y="260"/>
      <point x="157" y="260" type="curve" smooth="yes"/>
      <point x="164" y="260"/>
      <point x="166" y="253"/>
      <point x="166" y="247" type="curve" smooth="yes"/>
      <point x="166" y="230"/>
      <point x="153" y="213"/>
    </contour>
    <contour>
      <point x="136" y="0" type="curve" smooth="yes"/>
      <point x="175" y="0"/>
      <point x="206" y="31"/>
      <point x="206" y="70" type="curve" smooth="yes"/>
      <point x="206" y="109"/>
      <point x="175" y="140"/>
      <point x="136" y="140" type="curve" smooth="yes"/>
      <point x="97" y="140"/>
      <point x="66" y="109"/>
      <point x="66" y="70" type="curve" smooth="yes"/>
      <point x="66" y="31"/>
      <point x="97" y="0"/>
    </contour>
  </outline>
</glyph>
<glyph name="A" format="2">
  <advance width="639"/>
  <unicode hex="0041"/>
  <unicode hex="0061"/>
  <outline>
    <contour>
      <point x="39" y="43" type="curve"/>
      <point x="103" y="24"/>
      <point x="164" y="-4"/>
      <point x="220" y="-40" type="curve"/>
      <point x="241" y="1"/>
      <point x="267" y="38"/>
      <point x="296" y="74" type="curve"/>
      <point x="284" y="82" type="line"/>
      <point x="276" y="74"/>
      <point x="267" y="68"/>
      <point x="257" y="64" type="curve"/>
      <point x="104" y="131" type="line"/>
      <point x="224" y="322"/>
      <point x="339" y="515"/>
      <point x="422" y="726" type="curve"/>
      <point x="452" y="714"/>
      <point x="480" y="698"/>
      <point x="506" y="678" type="curve"/>
      <point x="538" y="706"/>
      <point x="571" y="731"/>
      <point x="606" y="754" type="curve"/>
      <point x="583" y="771" type="line"/>
      <point x="567" y="757" type="line"/>
      <point x="482" y="803" type="line"/>
      <point x="436" y="761"/>
      <point x="376" y="751"/>
      <point x="316" y="754" type="curve"/>
      <point x="264" y="506"/>
      <point x="148" y="270"/>
    </contour>
    <contour>
      <point x="20" y="672" type="line"/>
      <point x="42" y="657" type="line"/>
      <point x="75" y="696" type="line"/>
      <point x="104" y="691"/>
      <point x="133" y="680"/>
      <point x="158" y="664" type="curve"/>
      <point x="151" y="484"/>
      <point x="106" y="276"/>
      <point x="37" y="109" type="curve"/>
      <point x="55" y="95" type="line"/>
      <point x="152" y="302"/>
      <point x="231" y="524"/>
      <point x="267" y="750" type="curve"/>
      <point x="215" y="759"/>
      <point x="164" y="774"/>
      <point x="115" y="794" type="curve"/>
    </contour>
    <contour>
      <point x="467" y="629" type="line"/>
      <point x="443" y="510"/>
      <point x="424" y="388"/>
      <point x="424" y="266" type="curve" smooth="yes"/>
      <point x="424" y="158"/>
      <point x="440" y="32"/>
      <point x="535" y="-35" type="curve"/>
      <point x="556" y="18"/>
      <point x="585" y="68"/>
      <point x="619" y="114" type="curve"/>
      <point x="600" y="127" type="line"/>
      <point x="575" y="99" type="line"/>
      <point x="529" y="123"/>
      <point x="527" y="266"/>
      <point x="527" y="310" type="curve" smooth="yes"/>
      <point x="527" y="410"/>
      <point x="538" y="511"/>
      <point x="557" y="609" type="curve" smooth="yes"/>
      <point x="558" y="614"/>
      <point x="565" y="649"/>
      <point x="566" y="652" type="curve" smooth="yes"/>
      <point x="571" y="664"/>
      <point x="591" y="683"/>
      <point x="601" y="691" type="curve"/>
      <point x="590" y="705" type="line"/>
    </contour>
    <contour>
      <point x="133" y="145" type="curve"/>
      <point x="151" y="133" type="line"/>
      <point x="193" y="161"/>
      <point x="240" y="181"/>
      <point x="291" y="181" type="curve" smooth="yes"/>
      <point x="319" y="181"/>
      <point x="347" y="175"/>
      <point x="373" y="165" type="curve"/>
      <point x="409" y="234" type="line"/>
      <point x="389" y="237"/>
      <point x="370" y="239"/>
      <point x="350" y="239" type="curve" smooth="yes"/>
      <point x="267" y="239"/>
      <point x="186" y="211"/>
    </contour>
  </outline>
</glyph>
<glyph name="B" format="2">
  <advance width="336"/>
  <unicode hex="0042"/>
  <unicode hex="0062"/>
  <outline>
    <contour>
      <point x="21" y="2" type="line"/>
      <point x="29" y="0"/>
      <point x="37" y="0"/>
      <point x="45" y="0" type="curve" smooth="yes"/>
      <point x="178" y="0"/>
      <point x="316" y="145"/>
      <point x="316" y="276" type="curve" smooth="yes"/>
      <point x="316" y="348"/>
      <point x="280" y="413"/>
      <point x="234" y="466" type="curve"/>
      <point x="248" y="496"/>
      <point x="257" y="528"/>
      <point x="257" y="561" type="curve" smooth="yes"/>
      <point x="257" y="672"/>
      <point x="155" y="751"/>
      <point x="49" y="751" type="curve" smooth="yes"/>
      <point x="43" y="751" type="line"/>
      <point x="35" y="751"/>
      <point x="28" y="751"/>
      <point x="21" y="750" type="curve"/>
    </contour>
    <contour>
      <point x="76" y="59" type="curve"/>
      <point x="76" y="695" type="line"/>
      <point x="141" y="685"/>
      <point x="202" y="632"/>
      <point x="202" y="562" type="curve" smooth="yes"/>
      <point x="202" y="524"/>
      <point x="186" y="489"/>
      <point x="167" y="457" type="curve"/>
      <point x="217" y="409"/>
      <point x="259" y="347"/>
      <point x="259" y="276" type="curve" smooth="yes"/>
      <point x="259" y="176"/>
      <point x="171" y="81"/>
    </contour>
  </outline>
</glyph>
<glyph name="D" format="2">
  <advance width="737"/>
  <unicode hex="0044"/>
  <unicode hex="0064"/>
  <outline>
    <contour>
      <point x="363" y="522" type="curve" smooth="yes"/>
      <point x="363" y="451"/>
      <point x="247" y="372"/>
      <point x="247" y="240" type="curve" smooth="yes"/>
      <point x="247" y="171"/>
      <point x="298" y="129"/>
      <point x="365" y="129" type="curve" smooth="yes"/>
      <point x="492" y="129"/>
      <point x="538" y="299"/>
      <point x="538" y="400" type="curve" smooth="yes"/>
      <point x="538" y="533"/>
      <point x="445" y="634"/>
      <point x="310" y="634" type="curve" smooth="yes"/>
      <point x="197" y="634"/>
      <point x="142" y="583"/>
      <point x="124" y="473" type="curve" smooth="yes"/>
      <point x="119" y="441"/>
      <point x="106" y="408"/>
      <point x="68" y="408" type="curve" smooth="yes"/>
      <point x="37" y="408"/>
      <point x="20" y="430"/>
      <point x="20" y="460" type="curve" smooth="yes"/>
      <point x="20" y="495"/>
      <point x="25" y="531"/>
      <point x="25" y="566" type="curve" smooth="yes"/>
      <point x="25" y="595"/>
      <point x="21" y="625"/>
      <point x="21" y="654" type="curve" smooth="yes"/>
      <point x="21" y="707"/>
      <point x="57" y="747"/>
      <point x="111" y="747" type="curve" smooth="yes"/>
      <point x="183" y="747"/>
      <point x="254" y="735"/>
      <point x="326" y="735" type="curve" smooth="yes"/>
      <point x="394" y="735"/>
      <point x="461" y="756"/>
      <point x="529" y="756" type="curve" smooth="yes"/>
      <point x="649" y="756"/>
      <point x="717" y="649"/>
      <point x="717" y="538" type="curve" smooth="yes"/>
      <point x="717" y="451"/>
      <point x="677" y="374"/>
      <point x="657" y="292" type="curve" smooth="yes"/>
      <point x="642" y="231"/>
      <point x="644" y="140"/>
      <point x="615" y="87" type="curve" smooth="yes"/>
      <point x="587" y="37"/>
      <point x="549" y="3"/>
      <point x="489" y="3" type="curve" smooth="yes"/>
      <point x="441" y="3"/>
      <point x="393" y="13"/>
      <point x="345" y="13" type="curve" smooth="yes"/>
      <point x="298" y="13"/>
      <point x="253" y="-6"/>
      <point x="206" y="-6" type="curve" smooth="yes"/>
      <point x="141" y="-6"/>
      <point x="71" y="27"/>
      <point x="71" y="101" type="curve" smooth="yes"/>
      <point x="71" y="145"/>
      <point x="90" y="183"/>
      <point x="107" y="222" type="curve" smooth="yes"/>
      <point x="146" y="313"/>
      <point x="143" y="401"/>
      <point x="176" y="485" type="curve" smooth="yes"/>
      <point x="196" y="536"/>
      <point x="249" y="577"/>
      <point x="305" y="577" type="curve" smooth="yes"/>
      <point x="336" y="577"/>
      <point x="363" y="554"/>
    </contour>
  </outline>
</glyph>
<glyph name="F" format="2">
  <advance width="196"/>
  <unicode hex="0046"/>
  <unicode hex="0066"/>
  <outline>
    <contour>
      <point x="21" y="689" type="line" smooth="yes"/>
      <point x="21" y="730"/>
      <point x="61" y="750"/>
      <point x="97" y="750" type="curve" smooth="yes"/>
      <point x="114" y="750"/>
      <point x="129" y="740"/>
      <point x="145" y="740" type="curve" smooth="yes"/>
      <point x="155" y="740"/>
      <point x="165" y="747"/>
      <point x="169" y="747" type="curve" smooth="yes"/>
      <point x="176" y="747"/>
      <point x="175" y="733"/>
      <point x="175" y="729" type="curve" smooth="yes"/>
      <point x="175" y="701"/>
      <point x="147" y="682"/>
      <point x="121" y="682" type="curve" smooth="yes"/>
      <point x="101" y="682"/>
      <point x="82" y="689"/>
      <point x="63" y="689" type="curve" smooth="yes"/>
      <point x="52" y="689"/>
      <point x="43" y="681"/>
      <point x="43" y="670" type="curve" smooth="yes"/>
      <point x="43" y="651"/>
      <point x="99" y="593"/>
      <point x="99" y="527" type="curve" smooth="yes"/>
      <point x="99" y="510"/>
      <point x="97" y="492"/>
      <point x="95" y="475" type="curve" smooth="yes"/>
      <point x="51" y="15" type="line" smooth="yes"/>
      <point x="50" y="8"/>
      <point x="46" y="0"/>
      <point x="38" y="0" type="curve" smooth="yes"/>
      <point x="30" y="0"/>
      <point x="27" y="8"/>
      <point x="27" y="15" type="curve" smooth="yes"/>
    </contour>
  </outline>
</glyph>
<glyph name="G" format="2">
  <advance width="336"/>
  <unicode hex="0047"/>
  <unicode hex="0067"/>
  <outline>
    <contour>
      <point x="227" y="750" type="line"/>
      <point x="227" y="717" type="line"/>
      <point x="203" y="741"/>
      <point x="170" y="754"/>
      <point x="136" y="754" type="curve" smooth="yes"/>
      <point x="75" y="754"/>
      <point x="20" y="712"/>
      <point x="20" y="648" type="curve" smooth="yes"/>
      <point x="20" y="587"/>
      <point x="73" y="542"/>
      <point x="132" y="542" type="curve" smooth="yes"/>
      <point x="167" y="542"/>
      <point x="201" y="556"/>
      <point x="227" y="579" type="curve"/>
      <point x="227" y="105" type="line" smooth="yes"/>
      <point x="227" y="88"/>
      <point x="219" y="75"/>
      <point x="201" y="75" type="curve" smooth="yes"/>
      <point x="182" y="75"/>
      <point x="175" y="87"/>
      <point x="175" y="105" type="curve" smooth="yes"/>
      <point x="175" y="257" type="line"/>
      <point x="78" y="257" type="line"/>
      <point x="78" y="120" type="line" smooth="yes"/>
      <point x="78" y="43"/>
      <point x="115" y="-10"/>
      <point x="196" y="-10" type="curve" smooth="yes"/>
      <point x="271" y="-10"/>
      <point x="316" y="48"/>
      <point x="316" y="120" type="curve" smooth="yes"/>
      <point x="316" y="750" type="line"/>
    </contour>
    <contour>
      <point x="227" y="639" type="line"/>
      <point x="211" y="623"/>
      <point x="188" y="612"/>
      <point x="165" y="612" type="curve" smooth="yes"/>
      <point x="144" y="612"/>
      <point x="122" y="625"/>
      <point x="122" y="648" type="curve" smooth="yes"/>
      <point x="122" y="672"/>
      <point x="140" y="683"/>
      <point x="162" y="683" type="curve" smooth="yes"/>
      <point x="186" y="683"/>
      <point x="208" y="674"/>
      <point x="227" y="661" type="curve"/>
    </contour>
  </outline>
</glyph>
<glyph name="J" format="2">
  <advance width="359"/>
  <unicode hex="004A"/>
  <unicode hex="006A"/>
  <outline>
    <contour>
      <point x="96" y="-158" type="line"/>
      <point x="181" y="-117"/>
      <point x="257" y="-59"/>
      <point x="320" y="11" type="curve"/>
      <point x="339" y="708" type="line"/>
      <point x="248" y="731"/>
      <point x="156" y="747"/>
      <point x="63" y="756" type="curve"/>
      <point x="39" y="626" type="line"/>
      <point x="87" y="623"/>
      <point x="135" y="616"/>
      <point x="182" y="608" type="curve"/>
      <point x="194" y="69" type="line"/>
      <point x="143" y="21"/>
      <point x="84" y="-17"/>
      <point x="20" y="-45" type="curve"/>
    </contour>
  </outline>
</glyph>
<glyph name="K" format="2">
  <advance width="470"/>
  <unicode hex="004B"/>
  <unicode hex="006B"/>
  <outline>
    <contour>
      <point x="31" y="753" type="curve" smooth="yes"/>
      <point x="23" y="753"/>
      <point x="21" y="748"/>
      <point x="21" y="741" type="curve" smooth="yes"/>
      <point x="21" y="11" type="line" smooth="yes"/>
      <point x="21" y="3"/>
      <point x="20" y="-6"/>
      <point x="30" y="-6" type="curve" smooth="yes"/>
      <point x="40" y="-6"/>
      <point x="41" y="3"/>
      <point x="41" y="11" type="curve" smooth="yes"/>
      <point x="41" y="741" type="line" smooth="yes"/>
      <point x="41" y="748"/>
      <point x="39" y="753"/>
    </contour>
    <contour>
      <point x="236" y="375" type="line"/>
      <point x="431" y="3" type="line" smooth="yes"/>
      <point x="434" y="-2"/>
      <point x="438" y="-4"/>
      <point x="444" y="-4" type="curve" smooth="yes"/>
      <point x="448" y="-4"/>
      <point x="450" y="0"/>
      <point x="450" y="4" type="curve" smooth="yes"/>
      <point x="450" y="21"/>
      <point x="277" y="337"/>
      <point x="258" y="374" type="curve"/>
      <point x="277" y="409"/>
      <point x="450" y="729"/>
      <point x="450" y="744" type="curve" smooth="yes"/>
      <point x="450" y="747"/>
      <point x="449" y="752"/>
      <point x="445" y="752" type="curve" smooth="yes"/>
      <point x="437" y="752"/>
      <point x="434" y="750"/>
      <point x="431" y="743" type="curve" smooth="yes"/>
    </contour>
    <contour>
      <point x="77" y="221" type="line" smooth="yes"/>
      <point x="77" y="216"/>
      <point x="78" y="206"/>
      <point x="85" y="206" type="curve" smooth="yes"/>
      <point x="99" y="206"/>
      <point x="190" y="352"/>
      <point x="201" y="371" type="curve"/>
      <point x="187" y="392"/>
      <point x="103" y="534"/>
      <point x="86" y="534" type="curve" smooth="yes"/>
      <point x="77" y="534"/>
      <point x="78" y="523"/>
      <point x="78" y="517" type="curve" smooth="yes"/>
    </contour>
  </outline>
</glyph>
<glyph name="P" format="2">
  <advance width="634"/>
  <unicode hex="0050"/>
  <unicode hex="0070"/>
  <outline>
    <contour>
      <point x="231" y="0" type="curve"/>
      <point x="20" y="0" type="line"/>
      <point x="31" y="125"/>
      <point x="37" y="250"/>
      <point x="37" y="375" type="curve" smooth="yes"/>
      <point x="37" y="500"/>
      <point x="31" y="625"/>
      <point x="20" y="750" type="curve"/>
      <point x="402" y="750" type="line" smooth="yes"/>
      <point x="528" y="750"/>
      <point x="614" y="678"/>
      <point x="614" y="549" type="curve" smooth="yes"/>
      <point x="614" y="419"/>
      <point x="529" y="347"/>
      <point x="402" y="347" type="curve" smooth="yes"/>
      <point x="215" y="347" type="line"/>
      <point x="216" y="231"/>
      <point x="221" y="115"/>
    </contour>
    <contour>
      <point x="345" y="611" type="curve" smooth="yes"/>
      <point x="217" y="611" type="line"/>
      <point x="217" y="481" type="line"/>
      <point x="345" y="481" type="line" smooth="yes"/>
      <point x="384" y="481"/>
      <point x="426" y="502"/>
      <point x="426" y="546" type="curve" smooth="yes"/>
      <point x="426" y="590"/>
      <point x="384" y="611"/>
    </contour>
  </outline>
</glyph>
<glyph name="R" format="2">
  <advance width="544"/>
  <unicode hex="0052"/>
  <unicode hex="0072"/>
  <outline>
    <contour>
      <point x="39" y="11" type="line"/>
      <point x="101" y="135" type="line"/>
      <point x="135" y="135"/>
      <point x="174" y="123"/>
      <point x="198" y="99" type="curve"/>
      <point x="207" y="128"/>
      <point x="208" y="194"/>
      <point x="208" y="225" type="curve" smooth="yes"/>
      <point x="208" y="302"/>
      <point x="198" y="575"/>
      <point x="83" y="575" type="curve" smooth="yes"/>
      <point x="74" y="575"/>
      <point x="67" y="572"/>
      <point x="67" y="562" type="curve" smooth="yes"/>
      <point x="67" y="550"/>
      <point x="75" y="540"/>
      <point x="84" y="532" type="curve" smooth="yes"/>
      <point x="147" y="477"/>
      <point x="182" y="402"/>
      <point x="182" y="317" type="curve" smooth="yes"/>
      <point x="182" y="264"/>
      <point x="163" y="201"/>
      <point x="100" y="201" type="curve" smooth="yes"/>
      <point x="69" y="201"/>
      <point x="43" y="218"/>
      <point x="43" y="251" type="curve" smooth="yes"/>
      <point x="43" y="258"/>
      <point x="46" y="276"/>
      <point x="57" y="276" type="curve" smooth="yes"/>
      <point x="80" y="276"/>
      <point x="54" y="222"/>
      <point x="107" y="222" type="curve" smooth="yes"/>
      <point x="124" y="222"/>
      <point x="131" y="245"/>
      <point x="131" y="258" type="curve" smooth="yes"/>
      <point x="131" y="281"/>
      <point x="118" y="300"/>
      <point x="101" y="314" type="curve" smooth="yes"/>
      <point x="29" y="374"/>
      <point x="20" y="367"/>
      <point x="20" y="464" type="curve" smooth="yes"/>
      <point x="20" y="520"/>
      <point x="33" y="571"/>
      <point x="65" y="617" type="curve" smooth="yes"/>
      <point x="81" y="640"/>
      <point x="120" y="727"/>
      <point x="148" y="727" type="curve" smooth="yes"/>
      <point x="179" y="727"/>
      <point x="220" y="647"/>
      <point x="232" y="623" type="curve"/>
      <point x="231" y="630"/>
      <point x="230" y="637"/>
      <point x="230" y="644" type="curve" smooth="yes"/>
      <point x="230" y="705"/>
      <point x="272" y="750"/>
      <point x="334" y="750" type="curve" smooth="yes"/>
      <point x="497" y="750"/>
      <point x="415" y="591"/>
      <point x="468" y="537" type="curve"/>
      <point x="414" y="491" type="line"/>
      <point x="477" y="377"/>
      <point x="456" y="226"/>
      <point x="524" y="128" type="curve"/>
      <point x="426" y="0" type="line"/>
      <point x="333" y="117"/>
      <point x="377" y="274"/>
      <point x="318" y="405" type="curve"/>
      <point x="307" y="395" type="line"/>
      <point x="310" y="366"/>
      <point x="312" y="337"/>
      <point x="312" y="308" type="curve" smooth="yes"/>
      <point x="312" y="206"/>
      <point x="290" y="149"/>
      <point x="221" y="76" type="curve" smooth="yes"/>
      <point x="198" y="52"/>
      <point x="176" y="28"/>
      <point x="158" y="0" type="curve"/>
      <point x="71" y="33" type="line"/>
      <point x="55" y="1" type="line"/>
    </contour>
    <contour>
      <point x="378" y="490" type="line"/>
      <point x="345" y="514"/>
      <point x="340" y="544"/>
      <point x="340" y="583" type="curve" smooth="yes"/>
      <point x="340" y="612"/>
      <point x="329" y="661"/>
      <point x="292" y="661" type="curve" smooth="yes"/>
      <point x="275" y="661"/>
      <point x="260" y="654"/>
      <point x="260" y="635" type="curve" smooth="yes"/>
      <point x="260" y="590"/>
      <point x="314" y="592"/>
      <point x="314" y="574" type="curve" smooth="yes"/>
      <point x="314" y="565"/>
      <point x="299" y="564"/>
      <point x="293" y="564" type="curve" smooth="yes"/>
      <point x="276" y="564"/>
      <point x="261" y="571"/>
      <point x="250" y="584" type="curve"/>
      <point x="271" y="535"/>
      <point x="291" y="482"/>
      <point x="300" y="430" type="curve"/>
    </contour>
  </outline>
</glyph>
<glyph name="S" format="2">
  <advance width="718"/>
  <unicode hex="0053"/>
  <unicode hex="0073"/>
  <outline>
    <contour>
      <point x="698" y="658" type="line"/>
      <point x="629" y="732"/>
      <point x="539" y="766"/>
      <point x="439" y="766" type="curve" smooth="yes"/>
      <point x="301" y="766"/>
      <point x="116" y="684"/>
      <point x="116" y="523" type="curve" smooth="yes"/>
      <point x="116" y="434"/>
      <point x="179" y="370"/>
      <point x="255" y="334" type="curve"/>
      <point x="20" y="101" type="line"/>
      <point x="111" y="25"/>
      <point x="209" y="-12"/>
      <point x="328" y="-12" type="curve" smooth="yes"/>
      <point x="494" y="-12"/>
      <point x="690" y="64"/>
      <point x="690" y="258" type="curve" smooth="yes"/>
      <point x="690" y="371"/>
      <point x="605" y="436"/>
      <point x="507" y="473" type="curve"/>
    </contour>
    <contour>
      <point x="425" y="501" type="line"/>
      <point x="369" y="519"/>
      <point x="312" y="523"/>
      <point x="312" y="594" type="curve" smooth="yes"/>
      <point x="312" y="659"/>
      <point x="390" y="687"/>
      <point x="444" y="687" type="curve" smooth="yes"/>
      <point x="490" y="687"/>
      <point x="529" y="668"/>
      <point x="564" y="639" type="curve"/>
    </contour>
    <contour>
      <point x="335" y="306" type="line"/>
      <point x="458" y="273" type="line" smooth="yes"/>
      <point x="502" y="261"/>
      <point x="539" y="234"/>
      <point x="539" y="184" type="curve" smooth="yes"/>
      <point x="539" y="84"/>
      <point x="410" y="60"/>
      <point x="333" y="60" type="curve" smooth="yes"/>
      <point x="263" y="60"/>
      <point x="197" y="78"/>
      <point x="137" y="114" type="curve"/>
    </contour>
  </outline>
</glyph>
<glyph name="T" format="2">
  <advance width="707"/>
  <unicode hex="0054"/>
  <unicode hex="0074"/>
  <outline>
    <contour>
      <point x="20" y="668" type="curve"/>
      <point x="70" y="687"/>
      <point x="201" y="749"/>
      <point x="247" y="749" type="curve" smooth="yes"/>
      <point x="389" y="749"/>
      <point x="532" y="742"/>
      <point x="673" y="726" type="curve"/>
      <point x="707" y="628" type="line"/>
      <point x="660" y="613"/>
      <point x="545" y="580"/>
      <point x="498" y="580" type="curve"/>
      <point x="510" y="564"/>
      <point x="546" y="514"/>
      <point x="546" y="495" type="curve" smooth="yes"/>
      <point x="546" y="453"/>
      <point x="445" y="271"/>
      <point x="423" y="215" type="curve" smooth="yes"/>
      <point x="358" y="55" type="line"/>
      <point x="170" y="-36" type="line"/>
      <point x="169" y="-3"/>
      <point x="168" y="30"/>
      <point x="168" y="63" type="curve" smooth="yes"/>
      <point x="168" y="229"/>
      <point x="189" y="378"/>
      <point x="214" y="542" type="curve"/>
      <point x="181" y="542"/>
      <point x="148" y="540"/>
      <point x="115" y="540" type="curve" smooth="yes"/>
      <point x="102" y="540"/>
      <point x="73" y="540"/>
      <point x="62" y="547" type="curve"/>
      <point x="42" y="585"/>
      <point x="28" y="626"/>
    </contour>
  </outline>
</glyph>
<glyph name="U" format="2">
  <advance width="803"/>
  <unicode hex="0055"/>
  <unicode hex="0075"/>
  <outline>
    <contour>
      <point x="147" y="750" type="line"/>
      <point x="65" y="616"/>
      <point x="20" y="466"/>
      <point x="20" y="309" type="curve" smooth="yes"/>
      <point x="20" y="103"/>
      <point x="121" y="-14"/>
      <point x="329" y="-14" type="curve" smooth="yes"/>
      <point x="448" y="-14"/>
      <point x="548" y="68"/>
      <point x="599" y="171" type="curve"/>
      <point x="695" y="0" type="line"/>
      <point x="783" y="0" type="line"/>
      <point x="783" y="750" type="line"/>
      <point x="564" y="750" type="line"/>
      <point x="564" y="375" type="line" smooth="yes"/>
      <point x="564" y="276"/>
      <point x="522" y="86"/>
      <point x="392" y="86" type="curve" smooth="yes"/>
      <point x="256" y="86"/>
      <point x="231" y="234"/>
      <point x="231" y="341" type="curve" smooth="yes"/>
      <point x="231" y="485"/>
      <point x="259" y="614"/>
      <point x="304" y="750" type="curve"/>
    </contour>
  </outline>
</glyph>
<glyph name="V" format="2">
  <advance width="719"/>
  <unicode hex="0056"/>
  <unicode hex="0076"/>
  <outline>
    <contour>
      <point x="346" y="149" type="line"/>
      <point x="532" y="648" type="line" smooth="yes"/>
      <point x="535" y="657"/>
      <point x="538" y="666"/>
      <point x="538" y="676" type="curve" smooth="yes"/>
      <point x="538" y="715"/>
      <point x="502" y="707"/>
      <point x="474" y="707" type="curve"/>
      <point x="474" y="750" type="line"/>
      <point x="719" y="750" type="line"/>
      <point x="719" y="707" type="line"/>
      <point x="653" y="707"/>
      <point x="622" y="706"/>
      <point x="594" y="639" type="curve" smooth="yes"/>
      <point x="327" y="0" type="line"/>
      <point x="306" y="0" type="line"/>
      <point x="75" y="670" type="line" smooth="yes"/>
      <point x="62" y="709"/>
      <point x="36" y="707"/>
      <point x="0" y="707" type="curve"/>
      <point x="0" y="749" type="line"/>
      <point x="284" y="749" type="line"/>
      <point x="284" y="707" type="line"/>
      <point x="217" y="707" type="line" smooth="yes"/>
      <point x="194" y="707"/>
      <point x="181" y="694"/>
      <point x="181" y="671" type="curve" smooth="yes"/>
      <point x="181" y="664"/>
      <point x="182" y="656"/>
      <point x="184" y="649" type="curve" smooth="yes"/>
    </contour>
  </outline>
</glyph>
<glyph name="W" format="2">
  <advance width="834"/>
  <unicode hex="0057"/>
  <unicode hex="0077"/>
  <outline>
    <contour>
      <point x="0" y="664" type="line"/>
      <point x="97" y="773" type="line"/>
      <point x="268" y="576" type="line"/>
      <point x="392" y="750" type="line"/>
      <point x="526" y="557" type="line"/>
      <point x="750" y="792" type="line"/>
      <point x="834" y="656" type="line"/>
      <point x="683" y="470"/>
      <point x="599" y="251"/>
      <point x="562" y="16" type="curve"/>
      <point x="401" y="357" type="line"/>
      <point x="223" y="-45" type="line"/>
      <point x="160" y="260" type="line" smooth="yes"/>
      <point x="148" y="320"/>
      <point x="146" y="355"/>
      <point x="128" y="413" type="curve" smooth="yes"/>
      <point x="117" y="448"/>
      <point x="102" y="464"/>
      <point x="85" y="497" type="curve" smooth="yes"/>
    </contour>
  </outline>
</glyph>
<glyph name="Z" format="2">
  <advance width="598"/>
  <unicode hex="005A"/>
  <unicode hex="007A"/>
  <outline>
    <contour>
      <point x="37" y="750" type="line"/>
      <point x="20" y="512" type="line"/>
      <point x="39" y="512" type="line"/>
      <point x="69" y="604"/>
      <point x="147" y="728"/>
      <point x="256" y="728" type="curve" smooth="yes"/>
      <point x="343" y="728" type="line"/>
      <point x="23" y="29" type="line"/>
      <point x="23" y="0" type="line"/>
      <point x="564" y="0" type="line"/>
      <point x="578" y="263" type="line"/>
      <point x="557" y="263" type="line"/>
      <point x="555" y="154"/>
      <point x="424" y="29"/>
      <point x="316" y="25" type="curve" smooth="yes"/>
      <point x="292" y="24"/>
      <point x="269" y="24"/>
      <point x="245" y="24" type="curve"/>
      <point x="564" y="724" type="line"/>
      <point x="564" y="750" type="line"/>
    </contour>
  </outline>
</glyph>
<glyph name="ellipsis" format="2">
  <advance width="680"/>
  <unicode hex="2026"/>
  <outline>
    <contour>
      <point x="90" y="140" type="curve" smooth="yes"/>
      <point x="51" y="140"/>
      <point x="20" y="109"/>
      <point x="20" y="70" type="curve" smooth="yes"/>
      <point x="20" y="31"/>
      <point x="51" y="0"/>
      <point x="90" y="0" type="curve" smooth="yes"/>
      <point x="129" y="0"/>
      <point x="160" y="31"/>
      <point x="160" y="70" type="curve" smooth="yes"/>
      <point x="160" y="109"/>
      <point x="129" y="140"/>
    </contour>
    <contour>
      <point x="340" y="140" type="curve" smooth="yes"/>
      <point x="301" y="140"/>
      <point x="270" y="109"/>
      <point x="270" y="70" type="curve" smooth="yes"/>
      <point x="270" y="31"/>
      <point x="301" y="0"/>
      <point x="340" y="0" type="curve" smooth="yes"/>
      <point x="379" y="0"/>
      <point x="410" y="31"/>
      <point x="410" y="70" type="curve" smooth="yes"/>
      <point x="410" y="109"/>
      <point x="379" y="140"/>
    </contour>
    <contour>
      <point x="590" y="140" type="curve" smooth="yes"/>
      <point x="551" y="140"/>
      <point x="520" y="109"/>
      <point x="520" y="70" type="curve" smooth="yes"/>
      <point x="520" y="31"/>
      <point x="551" y="0"/>
      <point x="590" y="0" type="curve" smooth="yes"/>
      <point x="629" y="0"/>
      <point x="660" y="31"/>
      <point x="660" y="70" type="curve" smooth="yes"/>
      <point x="660" y="109"/>
      <point x="629" y="140"/>
    </contour>
  </outline>
</glyph>
<glyph name="B.002" format="2">
  <advance width="433"/>
  <outline>
    <contour>
      <point x="64" y="750" type="curve" smooth="yes"/>
      <point x="91" y="750"/>
      <point x="109" y="727"/>
      <point x="126" y="709" type="curve"/>
      <point x="159" y="742"/>
      <point x="205" y="763"/>
      <point x="252" y="763" type="curve" smooth="yes"/>
      <point x="326" y="763"/>
      <point x="350" y="734"/>
      <point x="366" y="666" type="curve" smooth="yes"/>
      <point x="373" y="635"/>
      <point x="396" y="624"/>
      <point x="396" y="586" type="curve" smooth="yes"/>
      <point x="396" y="527"/>
      <point x="374" y="495"/>
      <point x="346" y="446" type="curve"/>
      <point x="385" y="352"/>
      <point x="412" y="312"/>
      <point x="412" y="206" type="curve" smooth="yes"/>
      <point x="412" y="171"/>
      <point x="409" y="137"/>
      <point x="391" y="106" type="curve" smooth="yes"/>
      <point x="362" y="55"/>
      <point x="311" y="0"/>
      <point x="248" y="0" type="curve" smooth="yes"/>
      <point x="209" y="0"/>
      <point x="171" y="11"/>
      <point x="137" y="29" type="curve" smooth="yes"/>
      <point x="48" y="77"/>
      <point x="23" y="133"/>
      <point x="23" y="231" type="curve" smooth="yes"/>
      <point x="23" y="283"/>
      <point x="38" y="334"/>
      <point x="38" y="386" type="curve" smooth="yes"/>
      <point x="38" y="436"/>
      <point x="32" y="485"/>
      <point x="32" y="535" type="curve" smooth="yes"/>
      <point x="32" y="559"/>
      <point x="40" y="583"/>
      <point x="40" y="607" type="curve" smooth="yes"/>
      <point x="40" y="638"/>
      <point x="21" y="665"/>
      <point x="21" y="696" type="curve" smooth="yes"/>
      <point x="21" y="722"/>
      <point x="35" y="750"/>
    </contour>
    <contour>
      <point x="108" y="523" type="curve" smooth="yes"/>
      <point x="108" y="461"/>
      <point x="155" y="421"/>
      <point x="216" y="421" type="curve" smooth="yes"/>
      <point x="240" y="421"/>
      <point x="266" y="425"/>
      <point x="280" y="446" type="curve" smooth="yes"/>
      <point x="294" y="466"/>
      <point x="327" y="506"/>
      <point x="327" y="530" type="curve" smooth="yes"/>
      <point x="327" y="536"/>
      <point x="324" y="541"/>
      <point x="321" y="547" type="curve" smooth="yes"/>
      <point x="300" y="588"/>
      <point x="309" y="625"/>
      <point x="293" y="655" type="curve" smooth="yes"/>
      <point x="283" y="673"/>
      <point x="267" y="692"/>
      <point x="244" y="692" type="curve" smooth="yes"/>
      <point x="220" y="692"/>
      <point x="154" y="672"/>
      <point x="141" y="654" type="curve" smooth="yes"/>
      <point x="119" y="624"/>
      <point x="121" y="591"/>
      <point x="113" y="556" type="curve" smooth="yes"/>
      <point x="110" y="545"/>
      <point x="108" y="534"/>
    </contour>
    <contour>
      <point x="257" y="88" type="curve" smooth="yes"/>
      <point x="299" y="88"/>
      <point x="316" y="95"/>
      <point x="316" y="140" type="curve" smooth="yes"/>
      <point x="316" y="172"/>
      <point x="328" y="202"/>
      <point x="328" y="234" type="curve" smooth="yes"/>
      <point x="328" y="275"/>
      <point x="291" y="367"/>
      <point x="243" y="367" type="curve" smooth="yes"/>
      <point x="230" y="367"/>
      <point x="217" y="364"/>
      <point x="204" y="364" type="curve" smooth="yes"/>
      <point x="180" y="364"/>
      <point x="159" y="380"/>
      <point x="135" y="380" type="curve" smooth="yes"/>
      <point x="105" y="380"/>
      <point x="101" y="368"/>
      <point x="101" y="341" type="curve" smooth="yes"/>
      <point x="101" y="318" type="line" smooth="yes"/>
      <point x="102" y="258"/>
      <point x="113" y="210"/>
      <point x="149" y="160" type="curve" smooth="yes"/>
      <point x="174" y="125"/>
      <point x="211" y="88"/>
    </contour>
  </outline>
</glyph>
<glyph name="C.002" format="2">
  <advance width="533"/>
  <outline>
    <contour>
      <point x="416" y="545" type="curve"/>
      <point x="508" y="647" type="line"/>
      <point x="449" y="725"/>
      <point x="395" y="761"/>
      <point x="296" y="761" type="curve" smooth="yes"/>
      <point x="94" y="761"/>
      <point x="20" y="565"/>
      <point x="20" y="393" type="curve" smooth="yes"/>
      <point x="20" y="206"/>
      <point x="77" y="-11"/>
      <point x="304" y="-11" type="curve" smooth="yes"/>
      <point x="386" y="-11"/>
      <point x="478" y="33"/>
      <point x="513" y="111" type="curve"/>
      <point x="416" y="215" type="line"/>
      <point x="416" y="148"/>
      <point x="387" y="98"/>
      <point x="314" y="98" type="curve" smooth="yes"/>
      <point x="250" y="98"/>
      <point x="222" y="142"/>
      <point x="222" y="202" type="curve" smooth="yes"/>
      <point x="222" y="548" type="line" smooth="yes"/>
      <point x="222" y="609"/>
      <point x="250" y="650"/>
      <point x="314" y="650" type="curve" smooth="yes"/>
      <point x="370" y="650"/>
      <point x="416" y="600"/>
    </contour>
  </outline>
</glyph>
<glyph name="C.003" format="2">
  <advance width="467"/>
  <outline>
    <contour>
      <point x="447" y="758" type="line"/>
      <point x="419" y="766"/>
      <point x="391" y="770"/>
      <point x="362" y="770" type="curve" smooth="yes"/>
      <point x="153" y="770"/>
      <point x="20" y="569"/>
      <point x="20" y="376" type="curve" smooth="yes"/>
      <point x="20" y="182"/>
      <point x="152" y="-20"/>
      <point x="362" y="-20" type="curve" smooth="yes"/>
      <point x="391" y="-20"/>
      <point x="419" y="-16"/>
      <point x="447" y="-8" type="curve"/>
      <point x="447" y="157" type="line"/>
      <point x="426" y="147"/>
      <point x="402" y="141"/>
      <point x="378" y="141" type="curve" smooth="yes"/>
      <point x="256" y="141"/>
      <point x="185" y="265"/>
      <point x="185" y="375" type="curve" smooth="yes"/>
      <point x="185" y="485"/>
      <point x="257" y="608"/>
      <point x="378" y="608" type="curve" smooth="yes"/>
      <point x="402" y="608"/>
      <point x="426" y="602"/>
      <point x="447" y="592" type="curve"/>
    </contour>
  </outline>
</glyph>
<glyph name="D.001" format="2">
  <advance width="954"/>
  <outline>
    <contour>
      <point x="529" y="0" type="line" smooth="yes"/>
      <point x="828" y="0"/>
      <point x="907" y="171"/>
      <point x="931" y="443" type="curve" smooth="yes"/>
      <point x="932" y="458"/>
      <point x="933" y="474"/>
      <point x="933" y="489" type="curve" smooth="yes"/>
      <point x="933" y="680"/>
      <point x="816" y="750"/>
      <point x="638" y="750" type="curve" smooth="yes"/>
      <point x="86" y="750" type="line"/>
      <point x="86" y="597" type="line"/>
      <point x="200" y="528" type="line"/>
      <point x="140" y="211" type="line"/>
      <point x="20" y="153" type="line"/>
      <point x="20" y="0" type="line"/>
    </contour>
    <contour>
      <point x="272" y="204" type="line"/>
      <point x="337" y="546" type="line"/>
      <point x="457" y="546" type="line" smooth="yes"/>
      <point x="486" y="546"/>
      <point x="510" y="532"/>
      <point x="510" y="500" type="curve" smooth="yes"/>
      <point x="510" y="494"/>
      <point x="509" y="489"/>
      <point x="508" y="483" type="curve" smooth="yes"/>
      <point x="460" y="261" type="line" smooth="yes"/>
      <point x="452" y="224"/>
      <point x="427" y="204"/>
      <point x="389" y="204" type="curve" smooth="yes"/>
    </contour>
  </outline>
</glyph>
<glyph name="D.002" format="2">
  <advance width="404"/>
  <outline>
    <contour>
      <point x="328" y="464" type="line"/>
      <point x="239" y="464" type="line" smooth="yes"/>
      <point x="179" y="464"/>
      <point x="133" y="436"/>
      <point x="108" y="381" type="curve" smooth="yes"/>
      <point x="44" y="243" type="line" smooth="yes"/>
      <point x="30" y="213"/>
      <point x="21" y="180"/>
      <point x="21" y="146" type="curve" smooth="yes"/>
      <point x="21" y="51"/>
      <point x="93" y="0"/>
      <point x="183" y="0" type="curve" smooth="yes"/>
      <point x="327" y="0" type="line" smooth="yes"/>
      <point x="364" y="0"/>
      <point x="384" y="20"/>
      <point x="384" y="57" type="curve" smooth="yes"/>
      <point x="384" y="721" type="line" smooth="yes"/>
      <point x="384" y="737"/>
      <point x="372" y="750"/>
      <point x="356" y="750" type="curve" smooth="yes"/>
      <point x="340" y="750"/>
      <point x="328" y="737"/>
      <point x="328" y="721" type="curve" smooth="yes"/>
    </contour>
    <contour>
      <point x="239" y="408" type="curve" smooth="yes"/>
      <point x="328" y="408" type="line"/>
      <point x="328" y="56" type="line"/>
      <point x="182" y="56" type="line" smooth="yes"/>
      <point x="124" y="56"/>
      <point x="76" y="87"/>
      <point x="76" y="149" type="curve" smooth="yes"/>
      <point x="76" y="172"/>
      <point x="82" y="195"/>
      <point x="92" y="215" type="curve" smooth="yes"/>
      <point x="159" y="357" type="line" smooth="yes"/>
      <point x="175" y="391"/>
      <point x="202" y="408"/>
    </contour>
  </outline>
  <guideline angle="90" x="239" y="0"/>
</glyph>
<glyph name="G.001" format="2">
  <advance width="707"/>
  <outline>
    <contour>
      <point x="682" y="375" type="curve"/>
      <point x="687" y="387" type="line"/>
      <point x="449" y="421" type="line"/>
      <point x="528" y="506" type="line"/>
      <point x="511" y="511" type="line"/>
      <point x="192" y="211" type="line"/>
      <point x="154" y="286"/>
      <point x="136" y="370"/>
      <point x="136" y="454" type="curve" smooth="yes"/>
      <point x="136" y="592"/>
      <point x="204" y="727"/>
      <point x="358" y="727" type="curve" smooth="yes"/>
      <point x="477" y="727"/>
      <point x="575" y="640"/>
      <point x="615" y="532" type="curve"/>
      <point x="630" y="530" type="line"/>
      <point x="670" y="805" type="line"/>
      <point x="659" y="813" type="line"/>
      <point x="631" y="694" type="line"/>
      <point x="622" y="691" type="line"/>
      <point x="577" y="742"/>
      <point x="515" y="770"/>
      <point x="447" y="770" type="curve" smooth="yes"/>
      <point x="197" y="770"/>
      <point x="72" y="589"/>
      <point x="72" y="353" type="curve" smooth="yes"/>
      <point x="72" y="282"/>
      <point x="89" y="210"/>
      <point x="125" y="148" type="curve"/>
      <point x="20" y="49" type="line"/>
      <point x="28" y="35" type="line"/>
      <point x="134" y="132" type="line"/>
      <point x="189" y="46"/>
      <point x="282" y="-18"/>
      <point x="386" y="-18" type="curve" smooth="yes"/>
      <point x="535" y="-18"/>
      <point x="619" y="96"/>
      <point x="619" y="238" type="curve" smooth="yes"/>
      <point x="619" y="287"/>
      <point x="613" y="337"/>
      <point x="602" y="385" type="curve"/>
      <point x="629" y="382"/>
      <point x="655" y="379"/>
    </contour>
    <contour>
      <point x="453" y="23" type="curve" smooth="yes"/>
      <point x="342" y="23"/>
      <point x="254" y="101"/>
      <point x="202" y="193" type="curve"/>
      <point x="377" y="353" type="line" smooth="yes"/>
      <point x="409" y="382"/>
      <point x="448" y="392"/>
      <point x="491" y="392" type="curve" smooth="yes"/>
      <point x="521" y="392"/>
      <point x="551" y="390"/>
      <point x="581" y="387" type="curve"/>
      <point x="593" y="338"/>
      <point x="600" y="287"/>
      <point x="600" y="236" type="curve" smooth="yes"/>
      <point x="600" y="155"/>
      <point x="552" y="23"/>
    </contour>
  </outline>
</glyph>
<glyph name="G.002" format="2">
  <advance width="691"/>
  <outline>
    <contour>
      <point x="136" y="505" type="curve" smooth="yes"/>
      <point x="136" y="448"/>
      <point x="205" y="378"/>
      <point x="249" y="348" type="curve"/>
      <point x="107" y="114" type="line"/>
      <point x="171" y="173"/>
      <point x="276" y="212"/>
      <point x="362" y="212" type="curve" smooth="yes"/>
      <point x="418" y="212"/>
      <point x="515" y="191"/>
      <point x="528" y="123" type="curve"/>
      <point x="476" y="137"/>
      <point x="415" y="138"/>
      <point x="362" y="138" type="curve" smooth="yes"/>
      <point x="166" y="138"/>
      <point x="63" y="45"/>
      <point x="20" y="-148" type="curve"/>
      <point x="31" y="-169" type="line"/>
      <point x="78" y="-184"/>
      <point x="131" y="-194"/>
      <point x="181" y="-194" type="curve" smooth="yes"/>
      <point x="222" y="-194"/>
      <point x="267" y="-187"/>
      <point x="296" y="-155" type="curve" smooth="yes"/>
      <point x="321" y="-127"/>
      <point x="348" y="-95"/>
      <point x="367" y="-62" type="curve"/>
      <point x="363" y="-43" type="line"/>
      <point x="339" y="-56"/>
      <point x="305" y="-66"/>
      <point x="278" y="-66" type="curve" smooth="yes"/>
      <point x="254" y="-66"/>
      <point x="175" y="-48"/>
      <point x="157" y="-34" type="curve"/>
      <point x="181" y="-2"/>
      <point x="265" y="13"/>
      <point x="302" y="13" type="curve" smooth="yes"/>
      <point x="334" y="13"/>
      <point x="367" y="10"/>
      <point x="398" y="0" type="curve" smooth="yes"/>
      <point x="432" y="-11"/>
      <point x="454" y="-25"/>
      <point x="492" y="-25" type="curve" smooth="yes"/>
      <point x="558" y="-25"/>
      <point x="623" y="53"/>
      <point x="656" y="104" type="curve"/>
      <point x="671" y="183" type="line"/>
      <point x="623" y="268"/>
      <point x="530" y="335"/>
      <point x="430" y="335" type="curve" smooth="yes"/>
      <point x="403" y="335"/>
      <point x="376" y="332"/>
      <point x="350" y="326" type="curve"/>
      <point x="379" y="341"/>
      <point x="515" y="424"/>
      <point x="525" y="449" type="curve" smooth="yes"/>
      <point x="534" y="473"/>
      <point x="552" y="504"/>
      <point x="552" y="530" type="curve" smooth="yes"/>
      <point x="552" y="538"/>
      <point x="551" y="547"/>
      <point x="546" y="554" type="curve" smooth="yes"/>
      <point x="417" y="744" type="line"/>
      <point x="441" y="776" type="line"/>
      <point x="518" y="766" type="line"/>
      <point x="605" y="869" type="line"/>
      <point x="521" y="899" type="line"/>
      <point x="405" y="765" type="line"/>
      <point x="393" y="774"/>
      <point x="377" y="779"/>
      <point x="362" y="779" type="curve" smooth="yes"/>
      <point x="335" y="779"/>
      <point x="308" y="760"/>
      <point x="292" y="739" type="curve" smooth="yes"/>
      <point x="157" y="559" type="line" smooth="yes"/>
      <point x="145" y="543"/>
      <point x="136" y="525"/>
    </contour>
    <contour>
      <point x="449" y="440" type="line"/>
      <point x="439" y="434"/>
      <point x="425" y="429"/>
      <point x="413" y="429" type="curve" smooth="yes"/>
      <point x="404" y="429"/>
      <point x="377" y="444"/>
      <point x="369" y="449" type="curve" smooth="yes"/>
      <point x="313" y="482"/>
      <point x="235" y="546"/>
      <point x="235" y="617" type="curve" smooth="yes"/>
      <point x="235" y="641"/>
      <point x="248" y="661"/>
      <point x="273" y="661" type="curve" smooth="yes"/>
      <point x="296" y="661"/>
      <point x="305" y="652"/>
      <point x="317" y="634" type="curve" smooth="yes"/>
    </contour>
    <contour>
      <point x="262" y="340" type="line"/>
      <point x="280" y="329"/>
      <point x="300" y="319"/>
      <point x="321" y="317" type="curve"/>
      <point x="278" y="302"/>
      <point x="237" y="279"/>
      <point x="203" y="248" type="curve"/>
    </contour>
  </outline>
</glyph>
<glyph name="H.002" format="2">
  <advance width="424"/>
  <outline>
    <contour>
      <point x="278" y="754" type="line"/>
      <point x="292" y="759"/>
      <point x="323" y="759"/>
      <point x="338" y="759" type="curve" smooth="yes"/>
      <point x="348" y="759"/>
      <point x="359" y="759"/>
      <point x="369" y="757" type="curve"/>
      <point x="250" y="439" type="line" smooth="yes"/>
      <point x="246" y="428"/>
      <point x="240" y="414"/>
      <point x="240" y="402" type="curve" smooth="yes"/>
      <point x="240" y="398"/>
      <point x="241" y="394"/>
      <point x="246" y="394" type="curve" smooth="yes"/>
      <point x="265" y="394"/>
      <point x="312" y="455"/>
      <point x="368" y="455" type="curve" smooth="yes"/>
      <point x="374" y="455"/>
      <point x="384" y="454"/>
      <point x="384" y="446" type="curve" smooth="yes"/>
      <point x="384" y="434"/>
      <point x="335" y="342"/>
      <point x="328" y="317" type="curve" smooth="yes"/>
      <point x="315" y="275"/>
      <point x="306" y="228"/>
      <point x="306" y="184" type="curve" smooth="yes"/>
      <point x="306" y="159"/>
      <point x="308" y="125"/>
      <point x="341" y="125" type="curve" smooth="yes"/>
      <point x="359" y="125"/>
      <point x="375" y="145"/>
      <point x="386" y="145" type="curve" smooth="yes"/>
      <point x="400" y="145"/>
      <point x="403" y="120"/>
      <point x="403" y="110" type="curve" smooth="yes"/>
      <point x="403" y="68"/>
      <point x="340" y="1"/>
      <point x="297" y="1" type="curve" smooth="yes"/>
      <point x="238" y="1"/>
      <point x="218" y="80"/>
      <point x="218" y="126" type="curve" smooth="yes"/>
      <point x="218" y="177"/>
      <point x="243" y="236"/>
      <point x="243" y="267" type="curve" smooth="yes"/>
      <point x="243" y="268"/>
      <point x="242" y="270"/>
      <point x="240" y="272" type="curve"/>
      <point x="234" y="272"/>
      <point x="203" y="241"/>
      <point x="197" y="235" type="curve" smooth="yes"/>
      <point x="158" y="194"/>
      <point x="167" y="-5"/>
      <point x="99" y="-5" type="curve" smooth="yes"/>
      <point x="70" y="-5"/>
      <point x="21" y="73"/>
      <point x="21" y="101" type="curve" smooth="yes"/>
      <point x="21" y="131"/>
      <point x="116" y="224"/>
      <point x="130" y="270" type="curve" smooth="yes"/>
    </contour>
  </outline>
</glyph>
<glyph name="J.001" format="2">
  <advance width="536"/>
  <outline>
    <contour>
      <point x="20" y="-23" type="curve" smooth="yes"/>
      <point x="20" y="19"/>
      <point x="47" y="58"/>
      <point x="92" y="58" type="curve" smooth="yes"/>
      <point x="126" y="58"/>
      <point x="157" y="35"/>
      <point x="157" y="-1" type="curve" smooth="yes"/>
      <point x="157" y="-43"/>
      <point x="124" y="-58"/>
      <point x="124" y="-80" type="curve" smooth="yes"/>
      <point x="124" y="-106"/>
      <point x="167" y="-109"/>
      <point x="184" y="-109" type="curve" smooth="yes"/>
      <point x="256" y="-109"/>
      <point x="276" y="-41"/>
      <point x="276" y="19" type="curve" smooth="yes"/>
      <point x="276" y="722" type="line"/>
      <point x="160" y="722" type="line"/>
      <point x="160" y="750" type="line"/>
      <point x="516" y="750" type="line"/>
      <point x="516" y="722" type="line"/>
      <point x="396" y="722" type="line"/>
      <point x="396" y="85" type="line" smooth="yes"/>
      <point x="396" y="-38"/>
      <point x="308" y="-138"/>
      <point x="182" y="-138" type="curve" smooth="yes"/>
      <point x="111" y="-138"/>
      <point x="20" y="-108"/>
    </contour>
  </outline>
  <guideline angle="0" x="0" y="724"/>
</glyph>
<glyph name="J.002" format="2">
  <advance width="659"/>
  <outline>
    <contour>
      <point x="536" y="11" type="curve"/>
      <point x="504" y="-29" type="line"/>
      <point x="486" y="-23"/>
      <point x="467" y="-20"/>
      <point x="448" y="-20" type="curve" smooth="yes"/>
      <point x="358" y="-20"/>
      <point x="304" y="-94"/>
      <point x="219" y="-94" type="curve" smooth="yes"/>
      <point x="112" y="-94"/>
      <point x="21" y="-41"/>
      <point x="21" y="76" type="curve" smooth="yes"/>
      <point x="21" y="138"/>
      <point x="61" y="198"/>
      <point x="128" y="198" type="curve" smooth="yes"/>
      <point x="179" y="198"/>
      <point x="231" y="163"/>
      <point x="231" y="108" type="curve" smooth="yes"/>
      <point x="231" y="72"/>
      <point x="209" y="43"/>
      <point x="209" y="10" type="curve" smooth="yes"/>
      <point x="209" y="-6"/>
      <point x="220" y="-24"/>
      <point x="238" y="-24" type="curve" smooth="yes"/>
      <point x="314" y="-24"/>
      <point x="373" y="108"/>
      <point x="390" y="167" type="curve" smooth="yes"/>
      <point x="402" y="208"/>
      <point x="407" y="251"/>
      <point x="407" y="294" type="curve" smooth="yes"/>
      <point x="407" y="420"/>
      <point x="371" y="534"/>
      <point x="286" y="629" type="curve" smooth="yes"/>
      <point x="269" y="649"/>
      <point x="256" y="671"/>
      <point x="256" y="698" type="curve" smooth="yes"/>
      <point x="256" y="737"/>
      <point x="284" y="763"/>
      <point x="323" y="763" type="curve" smooth="yes"/>
      <point x="379" y="763"/>
      <point x="426" y="697"/>
      <point x="448" y="653" type="curve"/>
      <point x="469" y="697"/>
      <point x="514" y="763"/>
      <point x="569" y="763" type="curve" smooth="yes"/>
      <point x="609" y="763"/>
      <point x="638" y="736"/>
      <point x="638" y="696" type="curve" smooth="yes"/>
      <point x="638" y="670"/>
      <point x="626" y="648"/>
      <point x="610" y="629" type="curve" smooth="yes"/>
      <point x="532" y="538"/>
      <point x="501" y="433"/>
      <point x="501" y="314" type="curve" smooth="yes"/>
      <point x="501" y="214"/>
      <point x="510" y="108"/>
    </contour>
  </outline>
</glyph>
<glyph name="K.001" format="2">
  <advance width="207"/>
  <outline>
    <contour>
      <point x="76" y="290" type="line" smooth="yes"/>
      <point x="76" y="320"/>
      <point x="72" y="350"/>
      <point x="70" y="380" type="curve"/>
      <point x="79" y="380" type="line"/>
      <point x="88" y="252"/>
      <point x="111" y="127"/>
      <point x="130" y="0" type="curve"/>
      <point x="187" y="0" type="line"/>
      <point x="146" y="267" type="line" smooth="yes"/>
      <point x="138" y="319"/>
      <point x="126" y="347"/>
      <point x="126" y="400" type="curve" smooth="yes"/>
      <point x="126" y="446"/>
      <point x="138" y="472"/>
      <point x="146" y="517" type="curve" smooth="yes"/>
      <point x="187" y="750" type="line"/>
      <point x="130" y="750" type="line"/>
      <point x="111" y="638"/>
      <point x="87" y="528"/>
      <point x="79" y="415" type="curve"/>
      <point x="69" y="415" type="line"/>
      <point x="71" y="445"/>
      <point x="76" y="475"/>
      <point x="76" y="505" type="curve" smooth="yes"/>
      <point x="76" y="750" type="line"/>
      <point x="20" y="750" type="line"/>
      <point x="20" y="0" type="line"/>
      <point x="76" y="0" type="line"/>
    </contour>
  </outline>
</glyph>
<glyph name="K.002" format="2">
  <advance width="637"/>
  <outline>
    <contour>
      <point x="21" y="725" type="line"/>
      <point x="21" y="743"/>
      <point x="31" y="750"/>
      <point x="48" y="750" type="curve" smooth="yes"/>
      <point x="196" y="750" type="line" smooth="yes"/>
      <point x="216" y="750"/>
      <point x="226" y="740"/>
      <point x="226" y="720" type="curve" smooth="yes"/>
      <point x="226" y="483" type="line"/>
      <point x="426" y="727" type="line" smooth="yes"/>
      <point x="432" y="734"/>
      <point x="439" y="740"/>
      <point x="448" y="740" type="curve" smooth="yes"/>
      <point x="460" y="740"/>
      <point x="575" y="653"/>
      <point x="575" y="629" type="curve" smooth="yes"/>
      <point x="575" y="608"/>
      <point x="406" y="422"/>
      <point x="382" y="394" type="curve"/>
      <point x="452" y="294"/>
      <point x="531" y="204"/>
      <point x="608" y="110" type="curve" smooth="yes"/>
      <point x="613" y="104"/>
      <point x="617" y="98"/>
      <point x="617" y="90" type="curve" smooth="yes"/>
      <point x="617" y="81"/>
      <point x="611" y="74"/>
      <point x="604" y="69" type="curve" smooth="yes"/>
      <point x="585" y="54"/>
      <point x="482" y="-34"/>
      <point x="465" y="-34" type="curve" smooth="yes"/>
      <point x="455" y="-34"/>
      <point x="449" y="-25"/>
      <point x="445" y="-18" type="curve" smooth="yes"/>
      <point x="383" y="87"/>
      <point x="319" y="188"/>
      <point x="240" y="282" type="curve" smooth="yes"/>
      <point x="238" y="285"/>
      <point x="232" y="292"/>
      <point x="227" y="292" type="curve" smooth="yes"/>
      <point x="221" y="292"/>
      <point x="222" y="277"/>
      <point x="222" y="275" type="curve" smooth="yes"/>
      <point x="226" y="30" type="line" smooth="yes"/>
      <point x="226" y="10"/>
      <point x="217" y="0"/>
      <point x="197" y="0" type="curve" smooth="yes"/>
      <point x="48" y="0" type="line" smooth="yes"/>
      <point x="27" y="0"/>
      <point x="20" y="10"/>
      <point x="20" y="30" type="curve" smooth="yes"/>
      <point x="20" y="69"/>
      <point x="25" y="108"/>
      <point x="27" y="147" type="curve" smooth="yes"/>
      <point x="31" y="230"/>
      <point x="34" y="314"/>
      <point x="34" y="397" type="curve" smooth="yes"/>
      <point x="34" y="505"/>
      <point x="30" y="613"/>
      <point x="21" y="720" type="curve"/>
    </contour>
  </outline>
</glyph>
<glyph name="L.002" format="2">
  <advance width="596"/>
  <outline>
    <contour>
      <point x="77" y="0" type="curve" smooth="yes"/>
      <point x="293" y="0" type="line" smooth="yes"/>
      <point x="398" y="0"/>
      <point x="487" y="86"/>
      <point x="551" y="161" type="curve" smooth="yes"/>
      <point x="565" y="177"/>
      <point x="575" y="198"/>
      <point x="575" y="220" type="curve" smooth="yes"/>
      <point x="575" y="258"/>
      <point x="543" y="289"/>
      <point x="505" y="289" type="curve" smooth="yes"/>
      <point x="482" y="289"/>
      <point x="461" y="278"/>
      <point x="445" y="263" type="curve" smooth="yes"/>
      <point x="324" y="151" type="line"/>
      <point x="255" y="151" type="line"/>
      <point x="255" y="576" type="line"/>
      <point x="341" y="602"/>
      <point x="326" y="613"/>
      <point x="326" y="699" type="curve" smooth="yes"/>
      <point x="326" y="744"/>
      <point x="283" y="750"/>
      <point x="247" y="750" type="curve" smooth="yes"/>
      <point x="136" y="750" type="line" smooth="yes"/>
      <point x="43" y="750"/>
      <point x="57" y="708"/>
      <point x="57" y="631" type="curve" smooth="yes"/>
      <point x="57" y="597"/>
      <point x="95" y="585"/>
      <point x="122" y="576" type="curve"/>
      <point x="122" y="151" type="line"/>
      <point x="77" y="151" type="line" smooth="yes"/>
      <point x="37" y="151"/>
      <point x="20" y="110"/>
      <point x="20" y="76" type="curve" smooth="yes"/>
      <point x="20" y="42"/>
      <point x="37" y="0"/>
    </contour>
  </outline>
</glyph>
<glyph name="N.002" format="2">
  <advance width="647"/>
  <outline>
    <contour>
      <point x="530" y="751" type="curve" smooth="yes"/>
      <point x="505" y="751"/>
      <point x="480" y="743"/>
      <point x="456" y="739" type="curve" smooth="yes"/>
      <point x="410" y="732"/>
      <point x="411" y="716"/>
      <point x="411" y="674" type="curve" smooth="yes"/>
      <point x="411" y="669"/>
      <point x="412" y="664"/>
      <point x="413" y="659" type="curve" smooth="yes"/>
      <point x="425" y="546"/>
      <point x="427" y="433"/>
      <point x="439" y="320" type="curve" smooth="yes"/>
      <point x="440" y="314"/>
      <point x="441" y="308"/>
      <point x="441" y="302" type="curve" smooth="yes"/>
      <point x="441" y="295"/>
      <point x="438" y="289"/>
      <point x="433" y="284" type="curve"/>
      <point x="378" y="329"/>
      <point x="238" y="651"/>
      <point x="190" y="737" type="curve" smooth="yes"/>
      <point x="181" y="753"/>
      <point x="169" y="772"/>
      <point x="149" y="772" type="curve" smooth="yes"/>
      <point x="112" y="772"/>
      <point x="56" y="748"/>
      <point x="27" y="726" type="curve"/>
      <point x="26" y="664"/>
      <point x="22" y="602"/>
      <point x="22" y="540" type="curve" smooth="yes"/>
      <point x="22" y="490"/>
      <point x="28" y="439"/>
      <point x="28" y="389" type="curve" smooth="yes"/>
      <point x="28" y="283"/>
      <point x="20" y="176"/>
      <point x="20" y="70" type="curve" smooth="yes"/>
      <point x="20" y="8"/>
      <point x="70" y="-10"/>
      <point x="123" y="-10" type="curve" smooth="yes"/>
      <point x="221" y="-10"/>
      <point x="201" y="13"/>
      <point x="201" y="91" type="curve" smooth="yes"/>
      <point x="201" y="172"/>
      <point x="202" y="253"/>
      <point x="206" y="334" type="curve"/>
      <point x="214" y="338" type="line"/>
      <point x="221" y="330"/>
      <point x="227" y="321"/>
      <point x="233" y="312" type="curve" smooth="yes"/>
      <point x="283" y="229"/>
      <point x="334" y="146"/>
      <point x="387" y="64" type="curve" smooth="yes"/>
      <point x="434" y="-9"/>
      <point x="509" y="-22"/>
      <point x="590" y="-22" type="curve" smooth="yes"/>
      <point x="615" y="-22"/>
      <point x="626" y="-7"/>
      <point x="626" y="17" type="curve" smooth="yes"/>
      <point x="626" y="34"/>
      <point x="621" y="51"/>
      <point x="620" y="68" type="curve" smooth="yes"/>
      <point x="609" y="228"/>
      <point x="604" y="390"/>
      <point x="591" y="550" type="curve" smooth="yes"/>
      <point x="587" y="599"/>
      <point x="586" y="648"/>
      <point x="579" y="696" type="curve" smooth="yes"/>
      <point x="575" y="725"/>
      <point x="565" y="751"/>
    </contour>
  </outline>
</glyph>
<glyph name="O.001" format="2">
  <advance width="1136"/>
  <outline>
    <contour>
      <point x="-20" y="455" type="curve"/>
      <point x="42" y="378" type="line"/>
      <point x="149" y="389" type="line"/>
      <point x="154" y="267"/>
      <point x="218" y="204"/>
      <point x="318" y="145" type="curve" smooth="yes"/>
      <point x="358" y="121"/>
      <point x="404" y="118"/>
      <point x="450" y="118" type="curve" smooth="yes"/>
      <point x="516" y="118"/>
      <point x="632" y="131"/>
      <point x="686" y="171" type="curve" smooth="yes"/>
      <point x="777" y="238"/>
      <point x="858" y="342"/>
      <point x="858" y="460" type="curve"/>
      <point x="981" y="472" type="line"/>
      <point x="914" y="418" type="line"/>
      <point x="982" y="365" type="line"/>
      <point x="1156" y="500" type="line"/>
      <point x="1136" y="517" type="line"/>
      <point x="1133" y="566" type="line"/>
      <point x="1140" y="586" type="line"/>
      <point x="935" y="709" type="line"/>
      <point x="886" y="634" type="line"/>
      <point x="1007" y="556" type="line"/>
      <point x="849" y="542" type="line"/>
      <point x="810" y="681"/>
      <point x="709" y="757"/>
      <point x="564" y="757" type="curve" smooth="yes"/>
      <point x="524" y="757" type="line"/>
      <point x="527" y="780" type="line"/>
      <point x="516" y="782"/>
      <point x="504" y="782"/>
      <point x="493" y="782" type="curve" smooth="yes"/>
      <point x="322" y="782"/>
      <point x="190" y="635"/>
      <point x="157" y="475" type="curve"/>
      <point x="98" y="469"/>
      <point x="39" y="463"/>
    </contour>
    <contour>
      <point x="502" y="680" type="line"/>
      <point x="511" y="681"/>
      <point x="519" y="681"/>
      <point x="528" y="681" type="curve" smooth="yes"/>
      <point x="632" y="681"/>
      <point x="737" y="640"/>
      <point x="774" y="535" type="curve"/>
      <point x="598" y="519"/>
      <point x="421" y="501"/>
      <point x="245" y="484" type="curve"/>
      <point x="283" y="582"/>
      <point x="374" y="710"/>
      <point x="490" y="709" type="curve"/>
    </contour>
    <contour>
      <point x="785" y="453" type="line"/>
      <point x="771" y="320"/>
      <point x="634" y="220"/>
      <point x="511" y="197" type="curve" smooth="yes"/>
      <point x="481" y="191"/>
      <point x="451" y="188"/>
      <point x="421" y="188" type="curve" smooth="yes"/>
      <point x="297" y="188"/>
      <point x="224" y="249"/>
      <point x="224" y="376" type="curve" smooth="yes"/>
      <point x="224" y="383"/>
      <point x="224" y="389"/>
      <point x="225" y="396" type="curve"/>
    </contour>
    <contour>
      <point x="292" y="70" type="line"/>
      <point x="339" y="-10" type="line"/>
      <point x="702" y="-10" type="line"/>
      <point x="712" y="70" type="line"/>
    </contour>
  </outline>
</glyph>
<glyph name="O.002" format="2">
  <advance width="808"/>
  <outline>
    <contour>
      <point x="20" y="381" type="curve" smooth="yes"/>
      <point x="20" y="592"/>
      <point x="194" y="760"/>
      <point x="404" y="760" type="curve" smooth="yes"/>
      <point x="606" y="760"/>
      <point x="788" y="593"/>
      <point x="788" y="387" type="curve" smooth="yes"/>
      <point x="788" y="167"/>
      <point x="627" y="-10"/>
      <point x="403" y="-10" type="curve" smooth="yes"/>
      <point x="186" y="-10"/>
      <point x="20" y="167"/>
    </contour>
    <contour>
      <point x="276" y="370" type="curve"/>
      <point x="276" y="372" type="line"/>
      <point x="256" y="422"/>
      <point x="243" y="483"/>
      <point x="243" y="537" type="curve" smooth="yes"/>
      <point x="243" y="620"/>
      <point x="323" y="661"/>
      <point x="397" y="661" type="curve" smooth="yes"/>
      <point x="473" y="661"/>
      <point x="554" y="620"/>
      <point x="554" y="535" type="curve" smooth="yes"/>
      <point x="554" y="514"/>
      <point x="546" y="494"/>
      <point x="546" y="473" type="curve"/>
      <point x="546" y="467" type="line"/>
      <point x="562" y="473"/>
      <point x="684" y="516"/>
      <point x="686" y="519" type="curve"/>
      <point x="632" y="628"/>
      <point x="520" y="694"/>
      <point x="399" y="694" type="curve" smooth="yes"/>
      <point x="225" y="694"/>
      <point x="83" y="552"/>
      <point x="83" y="378" type="curve" smooth="yes"/>
      <point x="83" y="366"/>
      <point x="84" y="306"/>
      <point x="93" y="306" type="curve" smooth="yes"/>
      <point x="112" y="306"/>
      <point x="240" y="361"/>
    </contour>
    <contour>
      <point x="518" y="457" type="curve"/>
      <point x="520" y="462" type="line"/>
      <point x="520" y="491"/>
      <point x="497" y="518"/>
      <point x="467" y="518" type="curve" smooth="yes"/>
      <point x="438" y="518"/>
      <point x="415" y="492"/>
      <point x="415" y="463" type="curve" smooth="yes"/>
      <point x="415" y="448"/>
      <point x="418" y="427"/>
      <point x="437" y="427" type="curve" smooth="yes"/>
      <point x="451" y="427"/>
      <point x="504" y="450"/>
    </contour>
    <contour>
      <point x="379" y="464" type="curve" smooth="yes"/>
      <point x="379" y="492"/>
      <point x="355" y="518"/>
      <point x="326" y="518" type="curve" smooth="yes"/>
      <point x="299" y="518"/>
      <point x="275" y="492"/>
      <point x="275" y="465" type="curve" smooth="yes"/>
      <point x="275" y="434"/>
      <point x="293" y="405"/>
      <point x="327" y="405" type="curve" smooth="yes"/>
      <point x="359" y="405"/>
      <point x="379" y="434"/>
    </contour>
    <contour>
      <point x="456" y="291" type="curve"/>
      <point x="439" y="309"/>
      <point x="422" y="319"/>
      <point x="396" y="319" type="curve" smooth="yes"/>
      <point x="374" y="319"/>
      <point x="353" y="311"/>
      <point x="337" y="292" type="curve"/>
      <point x="332" y="292"/>
      <point x="321" y="304"/>
      <point x="319" y="309" type="curve"/>
      <point x="266" y="294"/>
      <point x="213" y="274"/>
      <point x="161" y="255" type="curve" smooth="yes"/>
      <point x="147" y="250"/>
      <point x="131" y="246"/>
      <point x="116" y="237" type="curve"/>
      <point x="116" y="230"/>
      <point x="140" y="193"/>
      <point x="146" y="186" type="curve" smooth="yes"/>
      <point x="209" y="102"/>
      <point x="301" y="56"/>
      <point x="406" y="56" type="curve" smooth="yes"/>
      <point x="577" y="56"/>
      <point x="722" y="201"/>
      <point x="722" y="372" type="curve" smooth="yes"/>
      <point x="722" y="384"/>
      <point x="718" y="444"/>
      <point x="711" y="450" type="curve"/>
      <point x="694" y="448"/>
      <point x="526" y="386"/>
      <point x="520" y="379" type="curve"/>
      <point x="521" y="365"/>
      <point x="471" y="294"/>
    </contour>
    <contour>
      <point x="445" y="266" type="curve"/>
      <point x="443" y="264" type="line"/>
      <point x="427" y="265"/>
      <point x="411" y="270"/>
      <point x="394" y="270" type="curve" smooth="yes"/>
      <point x="379" y="270"/>
      <point x="366" y="265"/>
      <point x="351" y="264" type="curve"/>
      <point x="351" y="265"/>
      <point x="349" y="269"/>
      <point x="349" y="270" type="curve" smooth="yes"/>
      <point x="349" y="293"/>
      <point x="371" y="305"/>
      <point x="392" y="305" type="curve" smooth="yes"/>
      <point x="418" y="305"/>
      <point x="445" y="297"/>
    </contour>
    <contour>
      <point x="496" y="139" type="curve"/>
      <point x="465" y="155"/>
      <point x="430" y="161"/>
      <point x="395" y="161" type="curve" smooth="yes"/>
      <point x="357" y="161"/>
      <point x="335" y="156"/>
      <point x="299" y="142" type="curve"/>
      <point x="297" y="144" type="line"/>
      <point x="297" y="187" type="line" smooth="yes"/>
      <point x="297" y="234"/>
      <point x="355" y="256"/>
      <point x="395" y="256" type="curve" smooth="yes"/>
      <point x="435" y="256"/>
      <point x="497" y="233"/>
      <point x="497" y="185" type="curve" smooth="yes"/>
      <point x="497" y="143" type="line"/>
      <point x="497" y="142"/>
      <point x="497" y="141"/>
    </contour>
    <contour>
      <point x="396" y="81" type="curve" smooth="yes"/>
      <point x="377" y="81"/>
      <point x="297" y="89"/>
      <point x="297" y="115" type="curve" smooth="yes"/>
      <point x="297" y="141"/>
      <point x="375" y="146"/>
      <point x="394" y="146" type="curve" smooth="yes"/>
      <point x="414" y="146"/>
      <point x="497" y="140"/>
      <point x="497" y="112" type="curve" smooth="yes"/>
      <point x="497" y="85"/>
      <point x="414" y="81"/>
    </contour>
  </outline>
</glyph>
<glyph name="O.003" format="2">
  <advance width="418"/>
  <outline>
    <contour>
      <point x="20" y="376" type="curve" smooth="yes"/>
      <point x="20" y="324"/>
      <point x="25" y="273"/>
      <point x="35" y="222" type="curve" smooth="yes"/>
      <point x="51" y="142"/>
      <point x="105" y="-20"/>
      <point x="209" y="-20" type="curve" smooth="yes"/>
      <point x="313" y="-20"/>
      <point x="367" y="142"/>
      <point x="383" y="222" type="curve" smooth="yes"/>
      <point x="393" y="273"/>
      <point x="398" y="324"/>
      <point x="398" y="376" type="curve" smooth="yes"/>
      <point x="398" y="431"/>
      <point x="393" y="485"/>
      <point x="381" y="538" type="curve" smooth="yes"/>
      <point x="364" y="617"/>
      <point x="310" y="770"/>
      <point x="209" y="770" type="curve" smooth="yes"/>
      <point x="108" y="770"/>
      <point x="54" y="617"/>
      <point x="37" y="538" type="curve" smooth="yes"/>
      <point x="25" y="485"/>
      <point x="20" y="431"/>
    </contour>
    <contour>
      <point x="133" y="376" type="curve" smooth="yes"/>
      <point x="133" y="426"/>
      <point x="131" y="687"/>
      <point x="210" y="687" type="curve" smooth="yes"/>
      <point x="288" y="687"/>
      <point x="285" y="425"/>
      <point x="285" y="376" type="curve" smooth="yes"/>
      <point x="285" y="327"/>
      <point x="288" y="64"/>
      <point x="210" y="64" type="curve" smooth="yes"/>
      <point x="131" y="64"/>
      <point x="133" y="326"/>
    </contour>
  </outline>
</glyph>
<glyph name="O.004" format="2">
  <advance width="614"/>
  <outline>
    <contour>
      <point x="20" y="375" type="curve" smooth="yes"/>
      <point x="20" y="203"/>
      <point x="103" y="-20"/>
      <point x="307" y="-20" type="curve" smooth="yes"/>
      <point x="511" y="-20"/>
      <point x="594" y="203"/>
      <point x="594" y="375" type="curve" smooth="yes"/>
      <point x="594" y="547"/>
      <point x="511" y="770"/>
      <point x="307" y="770" type="curve" smooth="yes"/>
      <point x="103" y="770"/>
      <point x="20" y="547"/>
    </contour>
    <contour>
      <point x="229" y="206" type="curve" smooth="yes"/>
      <point x="229" y="548" type="line" smooth="yes"/>
      <point x="229" y="606"/>
      <point x="239" y="656"/>
      <point x="308" y="656" type="curve" smooth="yes"/>
      <point x="378" y="656"/>
      <point x="386" y="605"/>
      <point x="386" y="548" type="curve" smooth="yes"/>
      <point x="386" y="206" type="line" smooth="yes"/>
      <point x="386" y="149"/>
      <point x="378" y="98"/>
      <point x="308" y="98" type="curve" smooth="yes"/>
      <point x="239" y="98"/>
      <point x="229" y="148"/>
    </contour>
  </outline>
</glyph>
<glyph name="Q.001" format="2">
  <advance width="680"/>
  <outline>
    <contour>
      <point x="592" y="-135" type="curve" smooth="yes"/>
      <point x="608" y="-135"/>
      <point x="660" y="-83"/>
      <point x="660" y="-67" type="curve" smooth="yes"/>
      <point x="660" y="-35"/>
      <point x="554" y="32"/>
      <point x="554" y="68" type="curve" smooth="yes"/>
      <point x="554" y="75"/>
      <point x="556" y="81"/>
      <point x="559" y="87" type="curve" smooth="yes"/>
      <point x="607" y="188"/>
      <point x="628" y="278"/>
      <point x="628" y="391" type="curve" smooth="yes"/>
      <point x="628" y="579"/>
      <point x="555" y="760"/>
      <point x="338" y="760" type="curve" smooth="yes"/>
      <point x="300" y="760"/>
      <point x="262" y="753"/>
      <point x="226" y="741" type="curve" smooth="yes"/>
      <point x="181" y="726"/>
      <point x="46" y="659"/>
      <point x="46" y="601" type="curve" smooth="yes"/>
      <point x="46" y="594"/>
      <point x="52" y="582"/>
      <point x="60" y="582" type="curve" smooth="yes"/>
      <point x="80" y="582"/>
      <point x="156" y="676"/>
      <point x="302" y="676" type="curve" smooth="yes"/>
      <point x="480" y="676"/>
      <point x="519" y="472"/>
      <point x="519" y="332" type="curve" smooth="yes"/>
      <point x="519" y="231"/>
      <point x="498" y="139"/>
      <point x="459" y="46" type="curve" smooth="yes"/>
      <point x="456" y="39"/>
      <point x="454" y="32"/>
      <point x="454" y="24" type="curve" smooth="yes"/>
      <point x="454" y="-26"/>
      <point x="563" y="-135"/>
    </contour>
    <contour>
      <point x="135" y="581" type="curve" smooth="yes"/>
      <point x="29" y="581"/>
      <point x="20" y="385"/>
      <point x="20" y="316" type="curve" smooth="yes"/>
      <point x="20" y="142"/>
      <point x="89" y="-14"/>
      <point x="284" y="-14" type="curve" smooth="yes"/>
      <point x="333" y="-14"/>
      <point x="438" y="29"/>
      <point x="438" y="86" type="curve" smooth="yes"/>
      <point x="438" y="93"/>
      <point x="435" y="100"/>
      <point x="428" y="100" type="curve" smooth="yes"/>
      <point x="403" y="100"/>
      <point x="356" y="74"/>
      <point x="310" y="74" type="curve" smooth="yes"/>
      <point x="161" y="74"/>
      <point x="130" y="231"/>
      <point x="130" y="350" type="curve" smooth="yes"/>
      <point x="130" y="421"/>
      <point x="140" y="491"/>
      <point x="158" y="559" type="curve" smooth="yes"/>
      <point x="159" y="561"/>
      <point x="159" y="562"/>
      <point x="159" y="564" type="curve" smooth="yes"/>
      <point x="159" y="576"/>
      <point x="144" y="581"/>
    </contour>
  </outline>
</glyph>
<glyph name="R.001" format="2">
  <advance width="943"/>
  <outline>
    <contour>
      <point x="253" y="250" type="curve" smooth="yes"/>
      <point x="198" y="250"/>
      <point x="151" y="215"/>
      <point x="97" y="215" type="curve" smooth="yes"/>
      <point x="47" y="215"/>
      <point x="28" y="270"/>
      <point x="28" y="311" type="curve" smooth="yes"/>
      <point x="28" y="388"/>
      <point x="79" y="448"/>
      <point x="159" y="448" type="curve" smooth="yes"/>
      <point x="298" y="448"/>
      <point x="436" y="449"/>
      <point x="574" y="454" type="curve" smooth="yes"/>
      <point x="647" y="457"/>
      <point x="728" y="456"/>
      <point x="799" y="475" type="curve" smooth="yes"/>
      <point x="811" y="478"/>
      <point x="836" y="485"/>
      <point x="836" y="501" type="curve" smooth="yes"/>
      <point x="836" y="537"/>
      <point x="735" y="554"/>
      <point x="711" y="554" type="curve" smooth="yes"/>
      <point x="574" y="554"/>
      <point x="436" y="554"/>
      <point x="299" y="545" type="curve" smooth="yes"/>
      <point x="272" y="543"/>
      <point x="245" y="542"/>
      <point x="218" y="537" type="curve" smooth="yes"/>
      <point x="191" y="532"/>
      <point x="168" y="524"/>
      <point x="140" y="524" type="curve" smooth="yes"/>
      <point x="74" y="524"/>
      <point x="32" y="575"/>
      <point x="32" y="639" type="curve" smooth="yes"/>
      <point x="32" y="700"/>
      <point x="71" y="750"/>
      <point x="135" y="750" type="curve" smooth="yes"/>
      <point x="569" y="750" type="line" smooth="yes"/>
      <point x="671" y="750"/>
      <point x="886" y="713"/>
      <point x="886" y="574" type="curve" smooth="yes"/>
      <point x="886" y="547"/>
      <point x="874" y="521"/>
      <point x="855" y="501" type="curve"/>
      <point x="874" y="490"/>
      <point x="888" y="472"/>
      <point x="888" y="449" type="curve" smooth="yes"/>
      <point x="888" y="391"/>
      <point x="819" y="371"/>
      <point x="819" y="350" type="curve" smooth="yes"/>
      <point x="819" y="322"/>
      <point x="922" y="289"/>
      <point x="922" y="140" type="curve" smooth="yes"/>
      <point x="922" y="100"/>
      <point x="910" y="0"/>
      <point x="854" y="0" type="curve" smooth="yes"/>
      <point x="783" y="0"/>
      <point x="794" y="102"/>
      <point x="794" y="149" type="curve" smooth="yes"/>
      <point x="794" y="156" type="line"/>
      <point x="794" y="176"/>
      <point x="792" y="200"/>
      <point x="776" y="214" type="curve" smooth="yes"/>
      <point x="721" y="262"/>
      <point x="326" y="250"/>
    </contour>
    <contour>
      <point x="86" y="201" type="curve" smooth="yes"/>
      <point x="131" y="201"/>
      <point x="160" y="110"/>
      <point x="160" y="74" type="curve" smooth="yes"/>
      <point x="160" y="28"/>
      <point x="135" y="0"/>
      <point x="88" y="0" type="curve" smooth="yes"/>
      <point x="43" y="0"/>
      <point x="20" y="25"/>
      <point x="20" y="69" type="curve" smooth="yes"/>
      <point x="20" y="98"/>
      <point x="49" y="201"/>
    </contour>
  </outline>
</glyph>
<glyph name="S.001" format="2">
  <advance width="739"/>
  <outline>
    <contour>
      <point x="-20" y="-41" type="curve"/>
      <point x="46" y="-7"/>
      <point x="93" y="-3"/>
      <point x="163" y="-3" type="curve" smooth="yes"/>
      <point x="207" y="-3"/>
      <point x="251" y="-6"/>
      <point x="294" y="-13" type="curve" smooth="yes"/>
      <point x="335" y="-20"/>
      <point x="374" y="-30"/>
      <point x="415" y="-30" type="curve" smooth="yes"/>
      <point x="461" y="-30"/>
      <point x="512" y="2"/>
      <point x="508" y="70" type="curve"/>
      <point x="564" y="80"/>
      <point x="599" y="137"/>
      <point x="599" y="192" type="curve" smooth="yes"/>
      <point x="599" y="329"/>
      <point x="395" y="534"/>
      <point x="295" y="621" type="curve"/>
      <point x="336" y="606"/>
      <point x="387" y="604"/>
      <point x="430" y="604" type="curve" smooth="yes"/>
      <point x="547" y="604"/>
      <point x="704" y="674"/>
      <point x="759" y="783" type="curve"/>
      <point x="694" y="754"/>
      <point x="649" y="752"/>
      <point x="577" y="752" type="curve" smooth="yes"/>
      <point x="536" y="752"/>
      <point x="495" y="754"/>
      <point x="454" y="759" type="curve" smooth="yes"/>
      <point x="411" y="764"/>
      <point x="370" y="774"/>
      <point x="327" y="774" type="curve" smooth="yes"/>
      <point x="276" y="774"/>
      <point x="229" y="745"/>
      <point x="235" y="689" type="curve"/>
      <point x="180" y="689"/>
      <point x="125" y="643"/>
      <point x="125" y="587" type="curve" smooth="yes"/>
      <point x="125" y="543"/>
      <point x="151" y="495"/>
      <point x="181" y="464" type="curve" smooth="yes"/>
      <point x="280" y="362"/>
      <point x="392" y="268"/>
      <point x="473" y="141" type="curve"/>
      <point x="430" y="174"/>
      <point x="359" y="178"/>
      <point x="311" y="178" type="curve" smooth="yes"/>
      <point x="198" y="178"/>
      <point x="36" y="96"/>
    </contour>
  </outline>
</glyph>
<glyph name="S.002" format="2">
  <advance width="324"/>
  <outline>
    <contour>
      <point x="159" y="750" type="line"/>
      <point x="71" y="112" type="line"/>
      <point x="20" y="112" type="line"/>
      <point x="20" y="0" type="line"/>
      <point x="174" y="0" type="line"/>
      <point x="261" y="646" type="line"/>
      <point x="304" y="646" type="line"/>
      <point x="304" y="750" type="line"/>
    </contour>
  </outline>
</glyph>
<glyph name="T.002" format="2">
  <advance width="500"/>
  <outline>
    <contour>
      <point x="457" y="522" type="line"/>
      <point x="436" y="555"/>
      <point x="432" y="604"/>
      <point x="432" y="642" type="curve" smooth="yes"/>
      <point x="432" y="667"/>
      <point x="438" y="692"/>
      <point x="438" y="717" type="curve" smooth="yes"/>
      <point x="438" y="738"/>
      <point x="428" y="756"/>
      <point x="404" y="756" type="curve"/>
      <point x="397" y="756" type="line" smooth="yes"/>
      <point x="348" y="751"/>
      <point x="301" y="748"/>
      <point x="252" y="748" type="curve" smooth="yes"/>
      <point x="209" y="748"/>
      <point x="109" y="749"/>
      <point x="69" y="763" type="curve" smooth="yes"/>
      <point x="64" y="765"/>
      <point x="60" y="766"/>
      <point x="54" y="766" type="curve" smooth="yes"/>
      <point x="38" y="766"/>
      <point x="20" y="754"/>
      <point x="20" y="737" type="curve" smooth="yes"/>
      <point x="20" y="734"/>
      <point x="21" y="732"/>
      <point x="22" y="729" type="curve" smooth="yes"/>
      <point x="58" y="627"/>
      <point x="82" y="532"/>
      <point x="89" y="424" type="curve"/>
      <point x="132" y="427" type="line"/>
      <point x="125" y="529"/>
      <point x="106" y="622"/>
      <point x="72" y="718" type="curve"/>
      <point x="130" y="705"/>
      <point x="195" y="705"/>
      <point x="254" y="705" type="curve" smooth="yes"/>
      <point x="300" y="705"/>
      <point x="347" y="706"/>
      <point x="393" y="711" type="curve"/>
      <point x="391" y="689"/>
      <point x="389" y="667"/>
      <point x="389" y="645" type="curve" smooth="yes"/>
      <point x="389" y="597"/>
      <point x="395" y="540"/>
      <point x="420" y="498" type="curve"/>
    </contour>
    <contour>
      <point x="649" y="0" type="line"/>
      <point x="642" y="-76"/>
      <point x="618" y="-172"/>
      <point x="504" y="-172" type="curve" smooth="yes"/>
      <point x="272" y="-172"/>
      <point x="265" y="393"/>
      <point x="265" y="545" type="curve" smooth="yes"/>
      <point x="265" y="586"/>
      <point x="268" y="627"/>
      <point x="274" y="668" type="curve"/>
      <point x="231" y="675" type="line"/>
      <point x="225" y="633"/>
      <point x="222" y="589"/>
      <point x="222" y="546" type="curve" smooth="yes"/>
      <point x="222" y="362"/>
      <point x="230" y="-215"/>
      <point x="504" y="-215" type="curve" smooth="yes"/>
      <point x="643" y="-215"/>
      <point x="683" y="-101"/>
      <point x="692" y="0" type="curve"/>
    </contour>
  </outline>
</glyph>
<glyph name="T.003" format="2">
  <advance width="630"/>
  <outline>
    <contour>
      <point x="60" y="611" type="curve"/>
      <point x="119" y="750" type="line"/>
      <point x="146" y="754"/>
      <point x="174" y="755"/>
      <point x="201" y="755" type="curve" smooth="yes"/>
      <point x="327" y="755"/>
      <point x="437" y="704"/>
      <point x="552" y="704" type="curve" smooth="yes"/>
      <point x="571" y="704"/>
      <point x="591" y="706"/>
      <point x="610" y="709" type="curve"/>
      <point x="551" y="570" type="line"/>
      <point x="532" y="566"/>
      <point x="512" y="564"/>
      <point x="493" y="564" type="curve" smooth="yes"/>
      <point x="371" y="564"/>
      <point x="255" y="616"/>
      <point x="132" y="616" type="curve" smooth="yes"/>
      <point x="108" y="616"/>
      <point x="84" y="615"/>
    </contour>
    <contour>
      <point x="415" y="311" type="curve"/>
      <point x="275" y="214" type="line"/>
      <point x="275" y="304"/>
      <point x="199" y="380"/>
      <point x="199" y="470" type="curve"/>
      <point x="338" y="567" type="line"/>
      <point x="338" y="477"/>
      <point x="415" y="401"/>
    </contour>
    <contour>
      <point x="106" y="222" type="line"/>
      <point x="280" y="222"/>
      <point x="365" y="125"/>
      <point x="555" y="127" type="curve"/>
      <point x="464" y="-6" type="line"/>
      <point x="314" y="-5"/>
      <point x="171" y="83"/>
      <point x="20" y="84" type="curve"/>
    </contour>
  </outline>
</glyph>
<glyph name="U.003" format="2">
  <advance width="805"/>
  <outline>
    <contour>
      <point x="-20" y="422" type="curve" smooth="yes"/>
      <point x="-20" y="615"/>
      <point x="206" y="867"/>
      <point x="403" y="867" type="curve" smooth="yes"/>
      <point x="499" y="867"/>
      <point x="566" y="799"/>
      <point x="566" y="703" type="curve" smooth="yes"/>
      <point x="566" y="666"/>
      <point x="555" y="630"/>
      <point x="538" y="597" type="curve" smooth="yes"/>
      <point x="291" y="128" type="line" smooth="yes"/>
      <point x="278" y="104"/>
      <point x="265" y="71"/>
      <point x="265" y="43" type="curve" smooth="yes"/>
      <point x="265" y="30"/>
      <point x="269" y="15"/>
      <point x="285" y="15" type="curve" smooth="yes"/>
      <point x="410" y="15"/>
      <point x="724" y="644"/>
      <point x="775" y="750" type="curve"/>
      <point x="875" y="750" type="line"/>
      <point x="507" y="81" type="line" smooth="yes"/>
      <point x="501" y="70"/>
      <point x="496" y="58"/>
      <point x="496" y="46" type="curve" smooth="yes"/>
      <point x="496" y="23"/>
      <point x="518" y="17"/>
      <point x="537" y="17" type="curve" smooth="yes"/>
      <point x="598" y="17"/>
      <point x="664" y="86"/>
      <point x="700" y="128" type="curve"/>
      <point x="710" y="118" type="line"/>
      <point x="667" y="56"/>
      <point x="603" y="-10"/>
      <point x="522" y="-10" type="curve" smooth="yes"/>
      <point x="473" y="-10"/>
      <point x="443" y="9"/>
      <point x="443" y="62" type="curve" smooth="yes"/>
      <point x="443" y="82"/>
      <point x="447" y="103"/>
      <point x="452" y="122" type="curve"/>
      <point x="416" y="75"/>
      <point x="351" y="-10"/>
      <point x="285" y="-10" type="curve" smooth="yes"/>
      <point x="231" y="-10"/>
      <point x="220" y="44"/>
      <point x="220" y="88" type="curve" smooth="yes"/>
      <point x="220" y="161"/>
      <point x="244" y="231"/>
      <point x="279" y="295" type="curve" smooth="yes"/>
      <point x="473" y="648" type="line" smooth="yes"/>
      <point x="489" y="678"/>
      <point x="501" y="711"/>
      <point x="501" y="745" type="curve" smooth="yes"/>
      <point x="501" y="808"/>
      <point x="461" y="844"/>
      <point x="399" y="844" type="curve" smooth="yes"/>
      <point x="244" y="844"/>
      <point x="5" y="572"/>
      <point x="5" y="421" type="curve" smooth="yes"/>
      <point x="5" y="375"/>
      <point x="27" y="342"/>
      <point x="76" y="342" type="curve" smooth="yes"/>
      <point x="217" y="342"/>
      <point x="326" y="602"/>
      <point x="326" y="720" type="curve" smooth="yes"/>
      <point x="326" y="731"/>
      <point x="326" y="741"/>
      <point x="324" y="752" type="curve"/>
      <point x="345" y="758" type="line"/>
      <point x="353" y="735"/>
      <point x="356" y="710"/>
      <point x="356" y="686" type="curve" smooth="yes"/>
      <point x="356" y="547"/>
      <point x="238" y="319"/>
      <point x="79" y="319" type="curve" smooth="yes"/>
      <point x="11" y="319"/>
      <point x="-20" y="355"/>
    </contour>
  </outline>
</glyph>
<glyph name="V.001" format="2">
  <advance width="491"/>
  <outline>
    <contour>
      <point x="246" y="270" type="curve" smooth="yes"/>
      <point x="239" y="270"/>
      <point x="235" y="274"/>
      <point x="235" y="281" type="curve" smooth="yes"/>
      <point x="235" y="326"/>
      <point x="237" y="371"/>
      <point x="230" y="416" type="curve" smooth="yes"/>
      <point x="184" y="708" type="line" smooth="yes"/>
      <point x="180" y="736"/>
      <point x="162" y="750"/>
      <point x="134" y="750" type="curve" smooth="yes"/>
      <point x="42" y="750" type="line" smooth="yes"/>
      <point x="18" y="750"/>
      <point x="0" y="739"/>
      <point x="0" y="713" type="curve" smooth="yes"/>
      <point x="0" y="709"/>
      <point x="0" y="704"/>
      <point x="1" y="700" type="curve" smooth="yes"/>
      <point x="132" y="41" type="line" smooth="yes"/>
      <point x="137" y="14"/>
      <point x="154" y="0"/>
      <point x="182" y="0" type="curve" smooth="yes"/>
      <point x="309" y="0" type="line" smooth="yes"/>
      <point x="337" y="0"/>
      <point x="354" y="14"/>
      <point x="359" y="41" type="curve" smooth="yes"/>
      <point x="490" y="700" type="line" smooth="yes"/>
      <point x="491" y="704"/>
      <point x="491" y="709"/>
      <point x="491" y="713" type="curve" smooth="yes"/>
      <point x="491" y="739"/>
      <point x="473" y="750"/>
      <point x="449" y="750" type="curve" smooth="yes"/>
      <point x="357" y="750" type="line" smooth="yes"/>
      <point x="329" y="750"/>
      <point x="311" y="736"/>
      <point x="307" y="708" type="curve" smooth="yes"/>
      <point x="261" y="416" type="line" smooth="yes"/>
      <point x="254" y="371"/>
      <point x="256" y="326"/>
      <point x="256" y="281" type="curve" smooth="yes"/>
      <point x="256" y="275"/>
      <point x="252" y="270"/>
    </contour>
  </outline>
</glyph>
<glyph name="X.002" format="2">
  <advance width="774"/>
  <outline>
    <contour>
      <point x="534" y="0" type="line"/>
      <point x="754" y="0" type="line"/>
      <point x="460" y="430" type="line"/>
      <point x="731" y="750" type="line"/>
      <point x="665" y="750" type="line"/>
      <point x="430" y="474" type="line"/>
      <point x="241" y="750" type="line"/>
      <point x="21" y="750" type="line"/>
      <point x="305" y="335" type="line"/>
      <point x="20" y="0" type="line"/>
      <point x="86" y="0" type="line"/>
      <point x="335" y="291" type="line"/>
    </contour>
    <contour>
      <point x="563" y="48" type="line"/>
      <point x="114" y="702" type="line"/>
      <point x="213" y="702" type="line"/>
      <point x="660" y="48" type="line"/>
    </contour>
  </outline>
</glyph>
<glyph name="Y.001" format="2">
  <advance width="681"/>
  <outline>
    <contour>
      <point x="459" y="734" type="line"/>
      <point x="562" y="691"/>
      <point x="649" y="591"/>
      <point x="649" y="476" type="curve"/>
      <point x="509" y="198"/>
      <point x="43" y="225"/>
      <point x="43" y="39" type="curve" smooth="yes"/>
      <point x="43" y="-6"/>
      <point x="69" y="-33"/>
      <point x="114" y="-33" type="curve" smooth="yes"/>
      <point x="242" y="-33"/>
      <point x="312" y="103"/>
      <point x="464" y="103" type="curve" smooth="yes"/>
      <point x="504" y="103"/>
      <point x="549" y="75"/>
      <point x="549" y="31" type="curve" smooth="yes"/>
      <point x="549" y="5"/>
      <point x="519" y="-29"/>
      <point x="492" y="-29" type="curve" smooth="yes"/>
      <point x="470" y="-29"/>
      <point x="436" y="-15"/>
      <point x="436" y="12" type="curve"/>
      <point x="436" y="15" type="line"/>
      <point x="438" y="37"/>
      <point x="459" y="60"/>
      <point x="481" y="60" type="curve" smooth="yes"/>
      <point x="500" y="60"/>
      <point x="517" y="49"/>
      <point x="527" y="33" type="curve"/>
      <point x="523" y="71"/>
      <point x="499" y="85"/>
      <point x="464" y="85" type="curve" smooth="yes"/>
      <point x="348" y="85"/>
      <point x="214" y="-56"/>
      <point x="118" y="-56" type="curve" smooth="yes"/>
      <point x="67" y="-56"/>
      <point x="20" y="-25"/>
      <point x="20" y="30" type="curve" smooth="yes"/>
      <point x="20" y="98"/>
      <point x="72" y="141"/>
      <point x="125" y="174" type="curve"/>
      <point x="176" y="249"/>
      <point x="194" y="337"/>
      <point x="194" y="427" type="curve" smooth="yes"/>
      <point x="194" y="551"/>
      <point x="100" y="715"/>
      <point x="0" y="787" type="curve"/>
      <point x="136" y="762"/>
      <point x="275" y="752"/>
      <point x="413" y="752" type="curve" smooth="yes"/>
      <point x="445" y="752"/>
      <point x="463" y="759"/>
      <point x="495" y="764" type="curve" smooth="yes"/>
      <point x="659" y="788" type="line"/>
      <point x="661" y="772" type="line"/>
    </contour>
    <contour>
      <point x="156" y="193" type="curve"/>
      <point x="302" y="278"/>
      <point x="453" y="345"/>
      <point x="453" y="542" type="curve" smooth="yes"/>
      <point x="453" y="611"/>
      <point x="444" y="733"/>
      <point x="350" y="733" type="curve" smooth="yes"/>
      <point x="322" y="733"/>
      <point x="308" y="709"/>
      <point x="308" y="684" type="curve" smooth="yes"/>
      <point x="308" y="643"/>
      <point x="319" y="603"/>
      <point x="319" y="562" type="curve" smooth="yes"/>
      <point x="319" y="406"/>
      <point x="269" y="301"/>
    </contour>
  </outline>
</glyph>
<glyph name="Z.002" format="2">
  <advance width="572"/>
  <outline>
    <contour>
      <point x="76" y="787" type="curve"/>
      <point x="61" y="787" type="line"/>
      <point x="61" y="669"/>
      <point x="182" y="677"/>
      <point x="266" y="677" type="curve"/>
      <point x="266" y="595" type="line"/>
      <point x="220" y="550" type="line"/>
      <point x="266" y="506" type="line"/>
      <point x="266" y="391" type="line"/>
      <point x="239" y="375" type="line"/>
      <point x="246" y="363" type="line"/>
      <point x="292" y="390"/>
      <point x="297" y="394"/>
      <point x="354" y="394" type="curve" smooth="yes"/>
      <point x="388" y="394"/>
      <point x="419" y="376"/>
      <point x="440" y="351" type="curve"/>
      <point x="84" y="144" type="line" smooth="yes"/>
      <point x="48" y="123"/>
      <point x="20" y="96"/>
      <point x="20" y="52" type="curve" smooth="yes"/>
      <point x="20" y="10"/>
      <point x="52" y="-17"/>
      <point x="93" y="-17" type="curve" smooth="yes"/>
      <point x="120" y="-17"/>
      <point x="147" y="0"/>
      <point x="147" y="29" type="curve" smooth="yes"/>
      <point x="147" y="51"/>
      <point x="128" y="70"/>
      <point x="106" y="70" type="curve" smooth="yes"/>
      <point x="83" y="70"/>
      <point x="64" y="56"/>
      <point x="64" y="32" type="curve" smooth="yes"/>
      <point x="64" y="21"/>
      <point x="68" y="8"/>
      <point x="79" y="4" type="curve"/>
      <point x="46" y="4"/>
      <point x="33" y="23"/>
      <point x="33" y="55" type="curve" smooth="yes"/>
      <point x="33" y="97"/>
      <point x="80" y="133"/>
      <point x="120" y="133" type="curve" smooth="yes"/>
      <point x="194" y="133"/>
      <point x="265" y="49"/>
      <point x="283" y="-17" type="curve"/>
      <point x="393" y="37" type="line" smooth="yes"/>
      <point x="457" y="68"/>
      <point x="552" y="153"/>
      <point x="552" y="230" type="curve" smooth="yes"/>
      <point x="552" y="357"/>
      <point x="454" y="414"/>
      <point x="336" y="414" type="curve"/>
      <point x="483" y="500" type="line"/>
      <point x="483" y="635" type="line" smooth="yes"/>
      <point x="483" y="702"/>
      <point x="429" y="751"/>
      <point x="363" y="751" type="curve" smooth="yes"/>
      <point x="288" y="751"/>
      <point x="213" y="750"/>
      <point x="138" y="750" type="curve" smooth="yes"/>
      <point x="109" y="750"/>
      <point x="83" y="754"/>
    </contour>
    <contour>
      <point x="325" y="550" type="line"/>
      <point x="281" y="594" type="line"/>
      <point x="281" y="677" type="line"/>
      <point x="381" y="677" type="line" smooth="yes"/>
      <point x="400" y="677"/>
      <point x="413" y="668"/>
      <point x="413" y="648" type="curve" smooth="yes"/>
      <point x="413" y="477" type="line"/>
      <point x="281" y="400" type="line"/>
      <point x="281" y="506" type="line"/>
    </contour>
    <contour>
      <point x="369" y="164" type="line"/>
      <point x="369" y="293" type="line"/>
      <point x="449" y="339" type="line"/>
      <point x="471" y="307"/>
      <point x="480" y="267"/>
      <point x="480" y="228" type="curve"/>
    </contour>
    <contour>
      <point x="278" y="112" type="line"/>
      <point x="237" y="142"/>
      <point x="188" y="161"/>
      <point x="136" y="157" type="curve"/>
      <point x="330" y="270" type="line"/>
      <point x="330" y="142" type="line"/>
    </contour>
    <contour>
      <point x="479" y="210" type="line"/>
      <point x="474" y="150"/>
      <point x="421" y="37"/>
      <point x="350" y="37" type="curve" smooth="yes"/>
      <point x="348" y="37"/>
      <point x="345" y="38"/>
      <point x="343" y="40" type="curve"/>
      <point x="337" y="61"/>
      <point x="307" y="89"/>
      <point x="291" y="102" type="curve"/>
    </contour>
  </outline>
</glyph>
<glyph name="comma.001" format="2">
  <advance width="196"/>
  <outline>
    <contour>
      <point x="54" y="-92" type="line"/>
      <point x="158" y="28" type="line" smooth="yes"/>
      <point x="170" y="42"/>
      <point x="176" y="61"/>
      <point x="176" y="79" type="curve" smooth="yes"/>
      <point x="176" y="121"/>
      <point x="141" y="156"/>
      <point x="99" y="156" type="curve" smooth="yes"/>
      <point x="57" y="156"/>
      <point x="20" y="122"/>
      <point x="20" y="79" type="curve" smooth="yes"/>
      <point x="20" y="47"/>
      <point x="39" y="18"/>
      <point x="69" y="6" type="curve"/>
      <point x="44" y="-92" type="line"/>
    </contour>
  </outline>
</glyph>
<glyph name="exclam.001" format="2">
  <advance width="240"/>
  <outline>
    <contour>
      <point x="20" y="750" type="line"/>
      <point x="220" y="750" type="line"/>
      <point x="170" y="194" type="line"/>
      <point x="70" y="195" type="line"/>
    </contour>
    <contour>
      <point x="50" y="140" type="line"/>
      <point x="190" y="140" type="line"/>
      <point x="190" y="0" type="line"/>
      <point x="50" y="0" type="line"/>
    </contour>
  </outline>
</glyph>
<glyph name="five.002" format="2">
  <advance width="592"/>
  <outline>
    <contour>
      <point x="87" y="750" type="line"/>
      <point x="87" y="367" type="line"/>
      <point x="153" y="367" type="line"/>
      <point x="176" y="389"/>
      <point x="213" y="397"/>
      <point x="244" y="397" type="curve" smooth="yes"/>
      <point x="341" y="397"/>
      <point x="369" y="310"/>
      <point x="369" y="226" type="curve" smooth="yes"/>
      <point x="369" y="170"/>
      <point x="351" y="50"/>
      <point x="272" y="50" type="curve" smooth="yes"/>
      <point x="182" y="50"/>
      <point x="167" y="138"/>
      <point x="167" y="212" type="curve" smooth="yes"/>
      <point x="167" y="230"/>
      <point x="167" y="248"/>
      <point x="169" y="266" type="curve"/>
      <point x="22" y="240" type="line"/>
      <point x="21" y="232"/>
      <point x="20" y="223"/>
      <point x="20" y="215" type="curve" smooth="yes"/>
      <point x="20" y="64"/>
      <point x="124" y="-16"/>
      <point x="271" y="-16" type="curve" smooth="yes"/>
      <point x="426" y="-16"/>
      <point x="572" y="59"/>
      <point x="572" y="230" type="curve" smooth="yes"/>
      <point x="572" y="363"/>
      <point x="497" y="453"/>
      <point x="359" y="453" type="curve" smooth="yes"/>
      <point x="270" y="453" type="line"/>
      <point x="270" y="604" type="line"/>
      <point x="324" y="560"/>
      <point x="366" y="538"/>
      <point x="439" y="538" type="curve" smooth="yes"/>
      <point x="463" y="538"/>
      <point x="513" y="544"/>
      <point x="532" y="561" type="curve"/>
      <point x="535" y="750" type="line"/>
      <point x="507" y="752" type="line"/>
      <point x="463" y="735"/>
      <point x="464" y="714"/>
      <point x="404" y="714" type="curve" smooth="yes"/>
      <point x="373" y="714"/>
      <point x="290" y="727"/>
      <point x="267" y="750" type="curve"/>
    </contour>
  </outline>
</glyph>
<glyph name="five.003" format="2">
  <advance width="323"/>
  <outline>
    <contour>
      <point x="145" y="756" type="line"/>
      <point x="145" y="511" type="line"/>
      <point x="239" y="518" type="line"/>
      <point x="226" y="755" type="line"/>
    </contour>
    <contour>
      <point x="21" y="749" type="line"/>
      <point x="21" y="348" type="line"/>
      <point x="124" y="348" type="line"/>
      <point x="124" y="749" type="line"/>
    </contour>
    <contour>
      <point x="128" y="354" type="curve"/>
      <point x="128" y="5" type="line"/>
      <point x="224" y="5"/>
      <point x="302" y="84"/>
      <point x="302" y="180" type="curve" smooth="yes"/>
      <point x="302" y="276"/>
      <point x="224" y="354"/>
    </contour>
    <contour>
      <point x="23" y="205" type="line"/>
      <point x="23" y="0" type="line"/>
      <point x="110" y="0" type="line"/>
      <point x="110" y="205" type="line"/>
    </contour>
  </outline>
</glyph>
<glyph name="four.001" format="2">
  <advance width="830"/>
  <outline>
    <contour>
      <point x="765" y="736" type="line"/>
      <point x="765" y="325" type="line" smooth="yes"/>
      <point x="765" y="317"/>
      <point x="760" y="300"/>
      <point x="750" y="300" type="curve" smooth="yes"/>
      <point x="90" y="300" type="line" smooth="yes"/>
      <point x="80" y="300"/>
      <point x="70" y="304"/>
      <point x="70" y="315" type="curve" smooth="yes"/>
      <point x="70" y="319"/>
      <point x="71" y="324"/>
      <point x="74" y="327" type="curve" smooth="yes"/>
      <point x="468" y="757" type="line"/>
      <point x="468" y="772" type="line"/>
      <point x="423" y="772" type="line"/>
      <point x="50" y="362" type="line" smooth="yes"/>
      <point x="36" y="347"/>
      <point x="20" y="329"/>
      <point x="20" y="307" type="curve" smooth="yes"/>
      <point x="20" y="275"/>
      <point x="44" y="260"/>
      <point x="74" y="260" type="curve" smooth="yes"/>
      <point x="750" y="260" type="line"/>
      <point x="765" y="237" type="line"/>
      <point x="765" y="0" type="line"/>
      <point x="810" y="0" type="line"/>
      <point x="810" y="763" type="line"/>
    </contour>
  </outline>
</glyph>
<glyph name="nine.001" format="2">
  <advance width="529"/>
  <outline>
    <contour>
      <point x="462" y="-1" type="curve" smooth="yes"/>
      <point x="491" y="-1"/>
      <point x="509" y="21"/>
      <point x="509" y="49" type="curve" smooth="yes"/>
      <point x="509" y="665" type="line" smooth="yes"/>
      <point x="509" y="689"/>
      <point x="496" y="709"/>
      <point x="470" y="709" type="curve" smooth="yes"/>
      <point x="459" y="709"/>
      <point x="447" y="705"/>
      <point x="438" y="699" type="curve"/>
      <point x="390" y="740"/>
      <point x="317" y="750"/>
      <point x="257" y="750" type="curve" smooth="yes"/>
      <point x="124" y="750"/>
      <point x="20" y="650"/>
      <point x="20" y="516" type="curve" smooth="yes"/>
      <point x="20" y="374"/>
      <point x="114" y="275"/>
      <point x="257" y="275" type="curve" smooth="yes"/>
      <point x="312" y="275"/>
      <point x="384" y="297"/>
      <point x="414" y="347" type="curve"/>
      <point x="414" y="49" type="line" smooth="yes"/>
      <point x="414" y="21"/>
      <point x="433" y="-1"/>
    </contour>
    <contour>
      <point x="257" y="377" type="curve" smooth="yes"/>
      <point x="172" y="377"/>
      <point x="127" y="434"/>
      <point x="127" y="516" type="curve" smooth="yes"/>
      <point x="127" y="602"/>
      <point x="175" y="639"/>
      <point x="257" y="639" type="curve" smooth="yes"/>
      <point x="338" y="639"/>
      <point x="396" y="603"/>
      <point x="396" y="516" type="curve" smooth="yes"/>
      <point x="396" y="432"/>
      <point x="341" y="377"/>
    </contour>
  </outline>
</glyph>
<glyph name="nine.002" format="2">
  <advance width="459"/>
  <outline>
    <contour>
      <point x="221" y="0" type="curve" smooth="yes"/>
      <point x="381" y="0"/>
      <point x="439" y="104"/>
      <point x="439" y="253" type="curve" smooth="yes"/>
      <point x="439" y="499" type="line" smooth="yes"/>
      <point x="439" y="635"/>
      <point x="375" y="750"/>
      <point x="226" y="750" type="curve" smooth="yes"/>
      <point x="121" y="750"/>
      <point x="20" y="681"/>
      <point x="20" y="568" type="curve" smooth="yes"/>
      <point x="20" y="448" type="line" smooth="yes"/>
      <point x="20" y="356"/>
      <point x="61" y="247"/>
      <point x="169" y="247" type="curve" smooth="yes"/>
      <point x="209" y="247"/>
      <point x="253" y="262"/>
      <point x="282" y="290" type="curve"/>
      <point x="282" y="251"/>
      <point x="294" y="99"/>
      <point x="229" y="99" type="curve" smooth="yes"/>
      <point x="177" y="99"/>
      <point x="186" y="174"/>
      <point x="186" y="210" type="curve"/>
      <point x="43" y="210" type="line"/>
      <point x="43" y="82"/>
      <point x="81" y="0"/>
    </contour>
    <contour>
      <point x="177" y="439" type="curve" smooth="yes"/>
      <point x="177" y="584" type="line" smooth="yes"/>
      <point x="177" y="614"/>
      <point x="196" y="639"/>
      <point x="227" y="639" type="curve" smooth="yes"/>
      <point x="258" y="639"/>
      <point x="277" y="614"/>
      <point x="277" y="584" type="curve" smooth="yes"/>
      <point x="277" y="439" type="line" smooth="yes"/>
      <point x="277" y="409"/>
      <point x="261" y="376"/>
      <point x="227" y="376" type="curve" smooth="yes"/>
      <point x="193" y="376"/>
      <point x="177" y="409"/>
    </contour>
  </outline>
</glyph>
<glyph name="one.002" format="2">
  <advance width="448"/>
  <outline>
    <contour>
      <point x="47" y="10" type="curve" smooth="yes"/>
      <point x="47" y="4"/>
      <point x="51" y="0"/>
      <point x="57" y="0" type="curve" smooth="yes"/>
      <point x="417" y="0" type="line" smooth="yes"/>
      <point x="432" y="0"/>
      <point x="427" y="24"/>
      <point x="427" y="33" type="curve" smooth="yes"/>
      <point x="427" y="70"/>
      <point x="284" y="4"/>
      <point x="284" y="78" type="curve" smooth="yes"/>
      <point x="284" y="170" type="line" smooth="yes"/>
      <point x="284" y="198"/>
      <point x="309" y="227"/>
      <point x="309" y="253" type="curve" smooth="yes"/>
      <point x="309" y="280"/>
      <point x="284" y="308"/>
      <point x="284" y="336" type="curve" smooth="yes"/>
      <point x="284" y="757" type="line" smooth="yes"/>
      <point x="284" y="762"/>
      <point x="281" y="766"/>
      <point x="276" y="766" type="curve" smooth="yes"/>
      <point x="269" y="766"/>
      <point x="48" y="636"/>
      <point x="26" y="623" type="curve" smooth="yes"/>
      <point x="23" y="621"/>
      <point x="21" y="619"/>
      <point x="21" y="615" type="curve" smooth="yes"/>
      <point x="21" y="610"/>
      <point x="29" y="587"/>
      <point x="37" y="587" type="curve" smooth="yes"/>
      <point x="67" y="587"/>
      <point x="123" y="625"/>
      <point x="160" y="625" type="curve" smooth="yes"/>
      <point x="182" y="625"/>
      <point x="190" y="607"/>
      <point x="190" y="588" type="curve" smooth="yes"/>
      <point x="190" y="387" type="line" smooth="yes"/>
      <point x="190" y="346"/>
      <point x="148" y="291"/>
      <point x="148" y="253" type="curve" smooth="yes"/>
      <point x="148" y="246"/>
      <point x="182" y="148"/>
      <point x="187" y="135" type="curve" smooth="yes"/>
      <point x="193" y="117"/>
      <point x="190" y="96"/>
      <point x="190" y="78" type="curve" smooth="yes"/>
      <point x="190" y="56"/>
      <point x="177" y="43"/>
      <point x="155" y="43" type="curve" smooth="yes"/>
      <point x="57" y="43" type="line" smooth="yes"/>
      <point x="42" y="43"/>
      <point x="47" y="19"/>
    </contour>
  </outline>
  <guideline angle="18.4349" x="125" y="46"/>
</glyph>
<glyph name="question.001" format="2">
  <advance width="621"/>
  <outline>
    <contour>
      <point x="261" y="271" type="line"/>
      <point x="406" y="307"/>
      <point x="601" y="393"/>
      <point x="601" y="569" type="curve" smooth="yes"/>
      <point x="601" y="717"/>
      <point x="445" y="750"/>
      <point x="326" y="750" type="curve" smooth="yes"/>
      <point x="293" y="750"/>
      <point x="261" y="745"/>
      <point x="230" y="736" type="curve" smooth="yes"/>
      <point x="177" y="721"/>
      <point x="20" y="658"/>
      <point x="20" y="589" type="curve" smooth="yes"/>
      <point x="20" y="518"/>
      <point x="93" y="496"/>
      <point x="93" y="415" type="curve"/>
      <point x="142" y="416"/>
      <point x="211" y="480"/>
      <point x="211" y="530" type="curve" smooth="yes"/>
      <point x="211" y="582"/>
      <point x="178" y="639"/>
      <point x="135" y="667" type="curve"/>
      <point x="169" y="677"/>
      <point x="204" y="682"/>
      <point x="239" y="682" type="curve" smooth="yes"/>
      <point x="349" y="682"/>
      <point x="445" y="628"/>
      <point x="445" y="507" type="curve" smooth="yes"/>
      <point x="445" y="397"/>
      <point x="346" y="326"/>
      <point x="261" y="275" type="curve"/>
    </contour>
    <contour>
      <point x="333" y="0" type="line"/>
      <point x="439" y="110" type="line"/>
      <point x="327" y="219" type="line"/>
      <point x="201" y="97" type="line"/>
      <point x="228" y="97" type="line"/>
    </contour>
  </outline>
</glyph>
<glyph name="semicolon.001" format="2">
  <advance width="196"/>
  <outline>
    <contour>
      <point x="98" y="500" type="curve" smooth="yes"/>
      <point x="141" y="500"/>
      <point x="176" y="465"/>
      <point x="176" y="422" type="curve" smooth="yes"/>
      <point x="176" y="378"/>
      <point x="142" y="344"/>
      <point x="98" y="344" type="curve" smooth="yes"/>
      <point x="55" y="344"/>
      <point x="20" y="379"/>
      <point x="20" y="422" type="curve" smooth="yes"/>
      <point x="20" y="465"/>
      <point x="55" y="500"/>
    </contour>
    <contour>
      <point x="36" y="0" type="line"/>
      <point x="36" y="141" type="line"/>
      <point x="161" y="141" type="line"/>
      <point x="161" y="0" type="line" smooth="yes"/>
      <point x="161" y="-84"/>
      <point x="113" y="-109"/>
      <point x="36" y="-109" type="curve"/>
      <point x="36" y="-69" type="line"/>
      <point x="75" y="-69"/>
      <point x="109" y="-40"/>
      <point x="109" y="0" type="curve"/>
    </contour>
  </outline>
</glyph>
<glyph name="semicolon.002" format="2">
  <advance width="181"/>
  <outline>
    <contour>
      <point x="20" y="500" type="line"/>
      <point x="161" y="500" type="line"/>
      <point x="161" y="359" type="line"/>
      <point x="20" y="359" type="line"/>
    </contour>
    <contour>
      <point x="28" y="0" type="line"/>
      <point x="28" y="141" type="line"/>
      <point x="153" y="141" type="line"/>
      <point x="153" y="0" type="line" smooth="yes"/>
      <point x="153" y="-84"/>
      <point x="105" y="-109"/>
      <point x="28" y="-109" type="curve"/>
      <point x="28" y="-69" type="line"/>
      <point x="67" y="-69"/>
      <point x="101" y="-40"/>
      <point x="101" y="0" type="curve"/>
    </contour>
  </outline>
</glyph>
<glyph name="six.001" format="2">
  <advance width="783"/>
  <outline>
    <contour>
      <point x="562" y="764" type="curve"/>
      <point x="623" y="720"/>
      <point x="694" y="683"/>
      <point x="763" y="652" type="curve"/>
      <point x="741" y="653"/>
      <point x="718" y="654"/>
      <point x="696" y="654" type="curve" smooth="yes"/>
      <point x="482" y="654"/>
      <point x="161" y="577"/>
      <point x="161" y="307" type="curve" smooth="yes"/>
      <point x="161" y="184"/>
      <point x="271" y="38"/>
      <point x="402" y="38" type="curve" smooth="yes"/>
      <point x="505" y="38"/>
      <point x="557" y="157"/>
      <point x="557" y="247" type="curve" smooth="yes"/>
      <point x="557" y="362"/>
      <point x="476" y="473"/>
      <point x="354" y="473" type="curve" smooth="yes"/>
      <point x="311" y="473"/>
      <point x="269" y="464"/>
      <point x="228" y="452" type="curve"/>
      <point x="293" y="511"/>
      <point x="365" y="547"/>
      <point x="454" y="547" type="curve" smooth="yes"/>
      <point x="602" y="547"/>
      <point x="710" y="439"/>
      <point x="710" y="291" type="curve" smooth="yes"/>
      <point x="710" y="135"/>
      <point x="587" y="-12"/>
      <point x="424" y="0" type="curve"/>
      <point x="387" y="-13"/>
      <point x="353" y="-20"/>
      <point x="313" y="-20" type="curve" smooth="yes"/>
      <point x="132" y="-20"/>
      <point x="20" y="96"/>
      <point x="20" y="276" type="curve" smooth="yes"/>
      <point x="20" y="563"/>
      <point x="331" y="691"/>
    </contour>
  </outline>
</glyph>
<glyph name="three.001" format="2">
  <advance width="338"/>
  <outline>
    <contour>
      <point x="20" y="750" type="line"/>
      <point x="20" y="681" type="line"/>
      <point x="318" y="681" type="line"/>
      <point x="318" y="750" type="line"/>
    </contour>
    <contour>
      <point x="293" y="648" type="line"/>
      <point x="211" y="648" type="line"/>
      <point x="96" y="438" type="line"/>
      <point x="96" y="368" type="line"/>
      <point x="164" y="368"/>
      <point x="242" y="389"/>
      <point x="242" y="296" type="curve" smooth="yes"/>
      <point x="242" y="109" type="line" smooth="yes"/>
      <point x="242" y="81"/>
      <point x="224" y="61"/>
      <point x="195" y="61" type="curve"/>
      <point x="195" y="0" type="line"/>
      <point x="258" y="0"/>
      <point x="313" y="33"/>
      <point x="313" y="102" type="curve" smooth="yes"/>
      <point x="313" y="325" type="line" smooth="yes"/>
      <point x="313" y="406"/>
      <point x="253" y="432"/>
      <point x="181" y="432" type="curve"/>
      <point x="181" y="444" type="line"/>
    </contour>
    <contour>
      <point x="148" y="0" type="curve"/>
      <point x="148" y="60" type="line"/>
      <point x="102" y="60"/>
      <point x="91" y="98"/>
      <point x="91" y="137" type="curve" smooth="yes"/>
      <point x="91" y="260" type="line"/>
      <point x="20" y="260" type="line"/>
      <point x="20" y="119" type="line" smooth="yes"/>
      <point x="20" y="41"/>
      <point x="73" y="0"/>
    </contour>
  </outline>
</glyph>
<glyph name="three.002" format="2">
  <advance width="441"/>
  <outline>
    <contour>
      <point x="147" y="167" type="curve" smooth="yes"/>
      <point x="147" y="204"/>
      <point x="131" y="241"/>
      <point x="89" y="241" type="curve" smooth="yes"/>
      <point x="45" y="241"/>
      <point x="20" y="196"/>
      <point x="20" y="156" type="curve" smooth="yes"/>
      <point x="20" y="57"/>
      <point x="103" y="0"/>
      <point x="196" y="0" type="curve" smooth="yes"/>
      <point x="320" y="0"/>
      <point x="421" y="79"/>
      <point x="421" y="208" type="curve" smooth="yes"/>
      <point x="421" y="301"/>
      <point x="371" y="397"/>
      <point x="267" y="397" type="curve"/>
      <point x="267" y="405" type="line"/>
      <point x="364" y="405"/>
      <point x="401" y="496"/>
      <point x="401" y="580" type="curve" smooth="yes"/>
      <point x="401" y="685"/>
      <point x="309" y="750"/>
      <point x="211" y="750" type="curve" smooth="yes"/>
      <point x="124" y="750"/>
      <point x="25" y="691"/>
      <point x="25" y="595" type="curve" smooth="yes"/>
      <point x="25" y="558"/>
      <point x="45" y="508"/>
      <point x="89" y="508" type="curve" smooth="yes"/>
      <point x="132" y="508"/>
      <point x="150" y="550"/>
      <point x="150" y="587" type="curve" smooth="yes"/>
      <point x="150" y="608"/>
      <point x="144" y="628"/>
      <point x="144" y="649" type="curve" smooth="yes"/>
      <point x="144" y="677"/>
      <point x="159" y="688"/>
      <point x="186" y="688" type="curve" smooth="yes"/>
      <point x="236" y="688"/>
      <point x="235" y="596"/>
      <point x="235" y="564" type="curve" smooth="yes"/>
      <point x="235" y="449"/>
      <point x="216" y="430"/>
      <point x="105" y="430" type="curve"/>
      <point x="105" y="370" type="line"/>
      <point x="182" y="370"/>
      <point x="235" y="349"/>
      <point x="235" y="261" type="curve" smooth="yes"/>
      <point x="235" y="135" type="line" smooth="yes"/>
      <point x="235" y="104"/>
      <point x="227" y="54"/>
      <point x="186" y="54" type="curve" smooth="yes"/>
      <point x="151" y="54"/>
      <point x="142" y="83"/>
      <point x="142" y="113" type="curve" smooth="yes"/>
      <point x="142" y="131"/>
      <point x="147" y="149"/>
    </contour>
  </outline>
</glyph>
<glyph name="zero.001" format="2">
  <advance width="757"/>
  <outline>
    <contour>
      <point x="20" y="373" type="curve" smooth="yes"/>
      <point x="20" y="163"/>
      <point x="160" y="-15"/>
      <point x="379" y="-15" type="curve" smooth="yes"/>
      <point x="598" y="-15"/>
      <point x="737" y="163"/>
      <point x="737" y="373" type="curve" smooth="yes"/>
      <point x="737" y="583"/>
      <point x="598" y="760"/>
      <point x="379" y="760" type="curve" smooth="yes"/>
      <point x="160" y="760"/>
      <point x="20" y="584"/>
    </contour>
    <contour>
      <point x="379" y="715" type="line"/>
      <point x="572" y="715"/>
      <point x="692" y="557"/>
      <point x="692" y="373" type="curve" smooth="yes"/>
      <point x="692" y="189"/>
      <point x="572" y="30"/>
      <point x="379" y="30" type="curve"/>
    </contour>
  </outline>
</glyph>
